<svg xmlns="http://www.w3.org/2000/svg" xmlns:xlink="http://www.w3.org/1999/xlink" width="24" height="24" viewBox="0 0 24 24">
  <defs>
    <path id="eb-addcircle-a" d="M25.2173913,19.4782609 C25.5053913,19.4782609 25.7391304,19.7114783 25.7391304,20 C25.7391304,20.2885217 25.5053913,20.5217391 25.2173913,20.5217391 L20.5217391,20.5217391 L20.5217391,25.2173913 C20.5217391,25.505913 20.288,25.7391304 20,25.7391304 C19.712,25.7391304 19.4782609,25.505913 19.4782609,25.2173913 L19.4782609,20.5217391 L14.7826087,20.5217391 C14.4946087,20.5217391 14.2608696,20.2885217 14.2608696,20 C14.2608696,19.7114783 14.4946087,19.4782609 14.7826087,19.4782609 L19.4782609,19.4782609 L19.4782609,14.7826087 C19.4782609,14.494087 19.712,14.2608696 20,14.2608696 C20.288,14.2608696 20.5217391,14.494087 20.5217391,14.7826087 L20.5217391,19.4782609 L25.2173913,19.4782609 Z M20,8 C26.6166957,8 32,13.3827826 32,20 C32,26.6172174 26.6166957,32 20,32 C13.3833043,32 8,26.6172174 8,20 C8,13.3827826 13.3833043,8 20,8 Z M20,30.9565217 C26.0417391,30.9565217 30.9565217,26.0412174 30.9565217,20 C30.9565217,13.9587826 26.0417391,9.04347826 20,9.04347826 C13.9582609,9.04347826 9.04347826,13.9587826 9.04347826,20 C9.04347826,26.0412174 13.9582609,30.9565217 20,30.9565217 Z"/>
  </defs>
  <use transform="translate(-8 -8)" xlink:href="#eb-addcircle-a"/>
</svg>
