<svg xmlns="http://www.w3.org/2000/svg" xmlns:xlink="http://www.w3.org/1999/xlink" width="23" height="24" viewBox="0 0 23 24">
  <defs>
    <path id="eb-adduser-a" d="M1.48281242,14.8200149 L12.198559,14.8200149 L12.198559,13.3259925 C12.198559,12.4881036 11.7011011,11.7404742 10.9312159,11.4218868 C9.77391527,10.9421511 8.39776612,10.6985739 6.84068571,10.6985739 C5.28360531,10.6985739 3.90745616,10.9421511 2.75015553,11.4218868 C1.98027035,11.7404742 1.48281242,12.4881036 1.48281242,13.3259925 L1.48281242,14.8200149 Z M13.0228472,15.6443031 L0.658524224,15.6443031 L0.658524224,13.3259925 C0.658524224,12.1534426 1.3554599,11.1070087 2.43445315,10.6602445 C3.69231694,10.1388822 5.17479926,9.87428571 6.84068571,9.87428571 C8.50698431,9.87428571 9.98946663,10.1388822 11.2465061,10.6602445 C12.3259115,11.1070087 13.0228472,12.1534426 13.0228472,13.3259925 L13.0228472,15.6443031 Z M6.84068571,1.21925963 C5.24980949,1.21925963 3.95567702,2.5133921 3.95567702,4.10426832 C3.95567702,5.62920149 5.21601367,7.40142112 6.84068571,7.40142112 C8.46535775,7.40142112 9.72569441,5.62920149 9.72569441,4.10426832 C9.72569441,2.5133921 8.43114979,1.21925963 6.84068571,1.21925963 Z M6.84068571,8.22570932 C4.71773146,8.22570932 3.13138882,6.05000062 3.13138882,4.10426832 C3.13138882,2.0592093 4.79562669,0.394971429 6.84068571,0.394971429 C8.88615688,0.394971429 10.5499826,2.0592093 10.5499826,4.10426832 C10.5499826,6.05000062 8.96363997,8.22570932 6.84068571,8.22570932 Z M22.0363636,18.9963636 C22.2371818,18.9963636 22.4,19.1590073 22.4,19.36 C22.4,19.5609927 22.2371818,19.7236364 22.0363636,19.7236364 L18.7636364,19.7236364 L18.7636364,22.9963636 C18.7636364,23.1973564 18.6008182,23.36 18.4,23.36 C18.1991818,23.36 18.0363636,23.1973564 18.0363636,22.9963636 L18.0363636,19.7236364 L14.7636364,19.7236364 C14.5628182,19.7236364 14.4,19.5609927 14.4,19.36 C14.4,19.1590073 14.5628182,18.9963636 14.7636364,18.9963636 L18.0363636,18.9963636 L18.0363636,15.7236364 C18.0363636,15.5226436 18.1991818,15.36 18.4,15.36 C18.6008182,15.36 18.7636364,15.5226436 18.7636364,15.7236364 L18.7636364,18.9963636 L22.0363636,18.9963636 Z"/>
  </defs>
  <use fill-rule="evenodd" xlink:href="#eb-adduser-a"/>
</svg>
