<svg xmlns="http://www.w3.org/2000/svg" xmlns:xlink="http://www.w3.org/1999/xlink" width="22" height="24" viewBox="0 0 22 24">
  <defs>
    <path id="eb-bell-a" d="M19.9565217,8 C15.5681739,8 12.1304348,11.4377391 12.1304348,15.826087 L12.1304348,18.9565217 C12.1304348,20.7403478 11.2356522,21.7217391 10.370087,22.6702609 C9.66573913,23.4429565 9,24.1728696 9,25.2173913 C9,26.9996522 11.7798261,28.2737391 16.3226087,28.7062609 C16.5031304,30.5521739 18.0636522,32 19.9565217,32 C21.8493913,32 23.409913,30.5521739 23.5904348,28.7062609 C28.1332174,28.2737391 30.9130435,26.9996522 30.9130435,25.2173913 C30.9130435,24.1728696 30.2473043,23.4429565 29.5429565,22.6702609 C28.6773913,21.7217391 27.7826087,20.7403478 27.7826087,18.9565217 L27.7826087,15.826087 C27.7826087,11.4377391 24.3448696,8 19.9565217,8 Z M19.9565217,30.9565217 C18.6678261,30.9565217 17.601913,30.0153043 17.3926957,28.7902609 C18.2024348,28.8413913 19.056,28.8695652 19.9565217,28.8695652 C20.8575652,28.8695652 21.7106087,28.8408696 22.5203478,28.7902609 C22.3090435,30.0173913 21.2431304,30.9565217 19.9565217,30.9565217 Z M28.7718261,23.3735652 C29.3848696,24.046087 29.8695652,24.5766957 29.8695652,25.2173913 C29.8695652,26.1194783 27.7257391,27.3257391 23.0608696,27.7045217 C23.0577391,27.7045217 23.0551304,27.7029565 23.0525217,27.7034783 C23.0488696,27.7034783 23.0457391,27.706087 23.0415652,27.706087 C22.1113043,27.7806957 21.0902609,27.826087 19.9565217,27.826087 C13.1191304,27.826087 10.0434783,26.3005217 10.0434783,25.2173913 C10.0434783,24.5766957 10.5281739,24.046087 11.1412174,23.3735652 C12.0469565,22.3801739 13.173913,21.1446957 13.173913,18.9565217 L13.173913,15.826087 C13.173913,12.0226087 16.1530435,9.04347826 19.9565217,9.04347826 C23.76,9.04347826 26.7391304,12.0226087 26.7391304,15.826087 L26.7391304,18.9565217 C26.7391304,21.1446957 27.866087,22.3801739 28.7718261,23.3735652 Z"/>
  </defs>
  <use transform="translate(-9 -8)" xlink:href="#eb-bell-a"/>
</svg>
