<svg xmlns="http://www.w3.org/2000/svg" xmlns:xlink="http://www.w3.org/1999/xlink" width="20" height="24" viewBox="0 0 20 24">
  <defs>
    <path id="eb-book-a" d="M13.6315789,8 L19.8571429,8 C20.1435188,8 20.3759398,8.23321739 20.3759398,8.52173913 L20.3759398,17.3913043 C20.3759398,17.5838261 20.2706241,17.7606957 20.102015,17.8514783 C20.0252331,17.8926957 19.941188,17.9130435 19.8571429,17.9130435 C19.7564962,17.9130435 19.6563684,17.8833043 19.5692105,17.8253913 L16.7443609,15.9314783 L13.9189925,17.8253913 C13.7597218,17.9318261 13.5542782,17.9422609 13.3867068,17.8514783 C13.2180977,17.7606957 13.112782,17.5838261 13.112782,17.3913043 L13.112782,8.52173913 C13.112782,8.23321739 13.345203,8 13.6315789,8 Z M19.3383459,16.4166957 L19.3383459,9.04347826 L14.1503759,9.04347826 L14.1503759,16.4166957 L16.4564286,14.8702609 C16.5435865,14.8118261 16.6442331,14.7826087 16.7443609,14.7826087 C16.8444887,14.7826087 16.9451353,14.8118261 17.0322932,14.8702609 L19.3383459,16.4166957 Z M10,31.4782609 L10,8.52173913 C10,8.23321739 10.2324211,8 10.518797,8 C10.8051729,8 11.037594,8.23321739 11.037594,8.52173913 L11.037594,30.9565217 L28.6766917,30.9565217 L28.6766917,9.04347826 L22.9699248,9.04347826 C22.6835489,9.04347826 22.4511278,8.81026087 22.4511278,8.52173913 C22.4511278,8.23321739 22.6835489,8 22.9699248,8 L29.1954887,8 C29.4818647,8 29.7142857,8.23321739 29.7142857,8.52173913 L29.7142857,31.4782609 C29.7142857,31.7667826 29.4818647,32 29.1954887,32 L10.518797,32 C10.2324211,32 10,31.7667826 10,31.4782609 Z"/>
  </defs>
  <use transform="translate(-10 -8)" xlink:href="#eb-book-a"/>
</svg>
