<svg xmlns="http://www.w3.org/2000/svg" xmlns:xlink="http://www.w3.org/1999/xlink" width="21" height="24" viewBox="0 0 21 24">
  <defs>
    <path id="eb-buildings-a" d="M20.4516129,8 C20.683871,8 20.8387097,8.15483871 20.8387097,8.38709677 L20.8387097,11.0967742 L22,11.0967742 C22.2322581,11.0967742 22.3870968,11.2516129 22.3870968,11.483871 L22.3870968,13.4193548 L24.3225806,13.4193548 C24.5548387,13.4193548 24.7096774,13.5741935 24.7096774,13.8064516 L24.7096774,20.3870968 L30.516129,20.3870968 C30.7483871,20.3870968 30.9032258,20.5419355 30.9032258,20.7741935 L30.9032258,31.6129032 C30.9032258,31.8451613 30.7483871,32 30.516129,32 L22,32 L18.9032258,32 L10.3870968,32 C10.1548387,32 10,31.8451613 10,31.6129032 L10,23.0967742 C10,22.8645161 10.1548387,22.7096774 10.3870968,22.7096774 L16.1935484,22.7096774 L16.1935484,13.8064516 C16.1935484,13.5741935 16.3483871,13.4193548 16.5806452,13.4193548 L18.516129,13.4193548 L18.516129,11.483871 C18.516129,11.2516129 18.6709677,11.0967742 18.9032258,11.0967742 L20.0645161,11.0967742 L20.0645161,8.38709677 C20.0645161,8.15483871 20.2193548,8 20.4516129,8 Z M10.7741935,23.483871 L10.7741935,31.2258065 L18.516129,31.2258065 L18.516129,23.483871 L10.7741935,23.483871 Z M30.1290323,31.2258065 L30.1290323,21.1612903 L22.3870968,21.1612903 L22.3870968,31.2258065 L30.1290323,31.2258065 Z M22,14.1935484 C21.7677419,14.1935484 21.6129032,14.0387097 21.6129032,13.8064516 L21.6129032,11.8709677 L19.2903226,11.8709677 L19.2903226,13.8064516 C19.2903226,14.0387097 19.1354839,14.1935484 18.9032258,14.1935484 L16.9677419,14.1935484 L16.9677419,22.7096774 L18.9032258,22.7096774 C19.1354839,22.7096774 19.2903226,22.8645161 19.2903226,23.0967742 L19.2903226,31.2258065 L21.6129032,31.2258065 L21.6129032,20.7741935 C21.6129032,20.5419355 21.7677419,20.3870968 22,20.3870968 L23.9354839,20.3870968 L23.9354839,14.1935484 L22,14.1935484 Z M23.9354839,23.8709677 C23.9354839,23.6387097 24.0903226,23.483871 24.3225806,23.483871 L25.0967742,23.483871 C25.3290323,23.483871 25.483871,23.6387097 25.483871,23.8709677 C25.483871,24.1032258 25.3290323,24.2580645 25.0967742,24.2580645 L24.3225806,24.2580645 C24.0903226,24.2580645 23.9354839,24.1032258 23.9354839,23.8709677 Z M25.0967742,25.8064516 C25.3290323,25.8064516 25.483871,25.9612903 25.483871,26.1935484 C25.483871,26.4258065 25.3290323,26.5806452 25.0967742,26.5806452 L24.3225806,26.5806452 C24.0903226,26.5806452 23.9354839,26.4258065 23.9354839,26.1935484 C23.9354839,25.9612903 24.0903226,25.8064516 24.3225806,25.8064516 L25.0967742,25.8064516 Z M25.0967742,28.1290323 C25.3290323,28.1290323 25.483871,28.283871 25.483871,28.516129 C25.483871,28.7483871 25.3290323,28.9032258 25.0967742,28.9032258 L24.3225806,28.9032258 C24.0903226,28.9032258 23.9354839,28.7483871 23.9354839,28.516129 C23.9354839,28.283871 24.0903226,28.1290323 24.3225806,28.1290323 L25.0967742,28.1290323 Z M27.4193548,24.2580645 C27.1870968,24.2580645 27.0322581,24.1032258 27.0322581,23.8709677 C27.0322581,23.6387097 27.1870968,23.483871 27.4193548,23.483871 L28.1935484,23.483871 C28.4258065,23.483871 28.5806452,23.6387097 28.5806452,23.8709677 C28.5806452,24.1032258 28.4258065,24.2580645 28.1935484,24.2580645 L27.4193548,24.2580645 Z M27.4193548,26.5806452 C27.1870968,26.5806452 27.0322581,26.4258065 27.0322581,26.1935484 C27.0322581,25.9612903 27.1870968,25.8064516 27.4193548,25.8064516 L28.1935484,25.8064516 C28.4258065,25.8064516 28.5806452,25.9612903 28.5806452,26.1935484 C28.5806452,26.4258065 28.4258065,26.5806452 28.1935484,26.5806452 L27.4193548,26.5806452 Z M27.4193548,28.9032258 C27.1870968,28.9032258 27.0322581,28.7483871 27.0322581,28.516129 C27.0322581,28.283871 27.1870968,28.1290323 27.4193548,28.1290323 L28.1935484,28.1290323 C28.4258065,28.1290323 28.5806452,28.283871 28.5806452,28.516129 C28.5806452,28.7483871 28.4258065,28.9032258 28.1935484,28.9032258 L27.4193548,28.9032258 Z M16.5806452,25.8064516 C16.8129032,25.8064516 16.9677419,25.9612903 16.9677419,26.1935484 C16.9677419,26.4258065 16.8129032,26.5806452 16.5806452,26.5806452 L15.8064516,26.5806452 C15.5741935,26.5806452 15.4193548,26.4258065 15.4193548,26.1935484 C15.4193548,25.9612903 15.5741935,25.8064516 15.8064516,25.8064516 L16.5806452,25.8064516 Z M16.5806452,28.1290323 C16.8129032,28.1290323 16.9677419,28.283871 16.9677419,28.516129 C16.9677419,28.7483871 16.8129032,28.9032258 16.5806452,28.9032258 L15.8064516,28.9032258 C15.5741935,28.9032258 15.4193548,28.7483871 15.4193548,28.516129 C15.4193548,28.283871 15.5741935,28.1290323 15.8064516,28.1290323 L16.5806452,28.1290323 Z M13.483871,25.8064516 C13.716129,25.8064516 13.8709677,25.9612903 13.8709677,26.1935484 C13.8709677,26.4258065 13.716129,26.5806452 13.483871,26.5806452 L12.7096774,26.5806452 C12.4774194,26.5806452 12.3225806,26.4258065 12.3225806,26.1935484 C12.3225806,25.9612903 12.4774194,25.8064516 12.7096774,25.8064516 L13.483871,25.8064516 Z M13.483871,28.1290323 C13.716129,28.1290323 13.8709677,28.283871 13.8709677,28.516129 C13.8709677,28.7483871 13.716129,28.9032258 13.483871,28.9032258 L12.7096774,28.9032258 C12.4774194,28.9032258 12.3225806,28.7483871 12.3225806,28.516129 C12.3225806,28.283871 12.4774194,28.1290323 12.7096774,28.1290323 L13.483871,28.1290323 Z"/>
  </defs>
  <use transform="translate(-10 -8)" xlink:href="#eb-buildings-a"/>
</svg>
