<svg xmlns="http://www.w3.org/2000/svg" xmlns:xlink="http://www.w3.org/1999/xlink" width="24" height="24" viewBox="0 0 24 24">
  <defs>
    <path id="eb-calendar-a" d="M8.38709677,32 L31.6129032,32 C31.8269677,32 32,31.8269677 32,31.6129032 L32,10.7096774 C32,10.4956129 31.8269677,10.3225806 31.6129032,10.3225806 L26.5806452,10.3225806 L26.5806452,8.38709677 C26.5806452,8.17303226 26.4076129,8 26.1935484,8 C25.9794839,8 25.8064516,8.17303226 25.8064516,8.38709677 L25.8064516,10.3225806 L20.3870968,10.3225806 L20.3870968,8.38709677 C20.3870968,8.17303226 20.2140645,8 20,8 C19.7859355,8 19.6129032,8.17303226 19.6129032,8.38709677 L19.6129032,10.3225806 L14.1935484,10.3225806 L14.1935484,8.38709677 C14.1935484,8.17303226 14.0205161,8 13.8064516,8 C13.5923871,8 13.4193548,8.17303226 13.4193548,8.38709677 L13.4193548,10.3225806 L8.38709677,10.3225806 C8.17303226,10.3225806 8,10.4956129 8,10.7096774 L8,31.6129032 C8,31.8269677 8.17303226,32 8.38709677,32 Z M8.77419355,31.2258065 L8.77419355,16.516129 L31.2258065,16.516129 L31.2258065,31.2258065 L8.77419355,31.2258065 Z M13.4193548,11.0967742 L13.4193548,13.0322581 C13.4193548,13.2463226 13.5923871,13.4193548 13.8064516,13.4193548 C14.0205161,13.4193548 14.1935484,13.2463226 14.1935484,13.0322581 L14.1935484,11.0967742 L19.6129032,11.0967742 L19.6129032,13.0322581 C19.6129032,13.2463226 19.7859355,13.4193548 20,13.4193548 C20.2140645,13.4193548 20.3870968,13.2463226 20.3870968,13.0322581 L20.3870968,11.0967742 L25.8064516,11.0967742 L25.8064516,13.0322581 C25.8064516,13.2463226 25.9794839,13.4193548 26.1935484,13.4193548 C26.4076129,13.4193548 26.5806452,13.2463226 26.5806452,13.0322581 L26.5806452,11.0967742 L31.2258065,11.0967742 L31.2258065,15.7419355 L8.77419355,15.7419355 L8.77419355,11.0967742 L13.4193548,11.0967742 Z"/>
  </defs>
  <use transform="translate(-8 -8)" xlink:href="#eb-calendar-a"/>
</svg>
