<svg xmlns="http://www.w3.org/2000/svg" xmlns:xlink="http://www.w3.org/1999/xlink" width="24" height="24" viewBox="0 0 24 24">
  <defs>
    <path id="eb-call-a" d="M20.1818182,24 C20.3269091,24 20.4654545,23.9427273 20.5674545,23.8401818 L23.8401818,20.5674545 C24.0534545,20.3541818 24.0534545,20.0094545 23.8401818,19.7961818 L18.3856364,14.3416364 C18.1723636,14.1283636 17.8276364,14.1283636 17.6143636,14.3416364 L14.7272727,17.2287273 L6.77127273,9.27272727 L9.65836364,6.38563636 C9.87163636,6.17236364 9.87163636,5.82763636 9.65836364,5.61436364 L4.20381818,0.159818182 C3.99054545,-0.0534545455 3.64581818,-0.0534545455 3.43254545,0.159818182 L0.159818182,3.43254545 C0.0572727273,3.53454545 0,3.67363636 0,3.81818182 C0,14.9465455 9.05345455,24 20.1818182,24 Z M3.81818182,1.31672727 L8.50145455,6 L5.61436364,8.88709091 C5.40109091,9.10036364 5.40109091,9.44509091 5.61436364,9.65836364 L14.3416364,18.3856364 C14.5549091,18.5989091 14.8996364,18.5989091 15.1129091,18.3856364 L18,15.4985455 L22.6832727,20.1818182 L19.9570909,22.908 C9.60872727,22.7874545 1.21254545,14.3912727 1.092,4.04290909 L3.81818182,1.31672727 Z"/>
  </defs>
  <use fill="#222221" xlink:href="#eb-call-a"/>
</svg>
