<svg xmlns="http://www.w3.org/2000/svg" xmlns:xlink="http://www.w3.org/1999/xlink" width="24" height="19" viewBox="0 0 24 19">
  <defs>
    <path id="eb-change-a" d="M8.54547004,15.3638967 C8.24382511,15.3638967 8,15.1200716 8,14.8184267 C8,14.5167817 8.24382511,14.2729566 8.54547004,14.2729566 L14.0001705,14.2729566 C14.1545385,14.2729566 14.3023609,14.338413 14.4060002,14.4535072 L17.3515384,17.7268729 C17.5528168,17.9505156 17.5348163,18.2957982 17.3111736,18.4970766 C17.2069888,18.5908975 17.076076,18.6372624 16.9462542,18.6372624 C16.7973408,18.6372624 16.6484275,18.5767152 16.5409699,18.4567118 L13.7574363,15.3638967 L8.54547004,15.3638967 Z M31.8403136,14.4322339 C31.8910424,14.4824171 31.9308617,14.5429643 31.9586806,14.6100571 C32.0137731,14.7436973 32.0137731,14.8937015 31.9586806,15.0267962 C31.9308617,15.093889 31.8910424,15.1544362 31.8403136,15.2046194 L28.5680389,18.4768942 C28.4616722,18.5832609 28.3220319,18.636717 28.1823915,18.636717 C28.0427512,18.636717 27.9031109,18.5832609 27.7967442,18.4768942 C27.5834654,18.2636154 27.5834654,17.9188784 27.7967442,17.7055996 L30.1384471,15.3638967 L24.0613654,15.3638967 L14.4054547,26.092747 C14.3023609,26.2078411 14.1545385,26.2732975 14.0001705,26.2732975 L8.54547004,26.2732975 C8.24382511,26.2732975 8,26.0294724 8,25.7278275 C8,25.4261826 8.24382511,25.1823575 8.54547004,25.1823575 L13.7574363,25.1823575 L23.413347,14.4535072 C23.5164408,14.338413 23.6642632,14.2729566 23.8186312,14.2729566 L30.1384471,14.2729566 L27.7967442,11.9312537 C27.5834654,11.7179749 27.5834654,11.3732379 27.7967442,11.1599591 C28.010023,10.9466803 28.3547601,10.9466803 28.5680389,11.1599591 L31.8403136,14.4322339 Z M31.9586806,25.5194579 C32.0137731,25.6525526 32.0137731,25.8031024 31.9586806,25.9361971 C31.9308617,26.0032899 31.8910424,26.063837 31.8403136,26.1140203 L28.5680389,29.3862951 C28.4616722,29.4926617 28.3220319,29.5461178 28.1823915,29.5461178 C28.0427512,29.5461178 27.9031109,29.4926617 27.7967442,29.3862951 C27.5834654,29.1730163 27.5834654,28.8282792 27.7967442,28.6150004 L30.1384471,26.2732975 L23.8186312,26.2732975 C23.6642632,26.2732975 23.5164408,26.2078411 23.4128015,26.092747 L20.4683542,22.8210176 C20.2670758,22.5973749 20.2850763,22.2520924 20.508719,22.0508139 C20.7323617,21.84899 21.0770988,21.8664451 21.2789227,22.0911787 L24.0613654,25.1823575 L30.1384471,25.1823575 L27.7967442,22.8401091 C27.5834654,22.6268303 27.5834654,22.2820932 27.7967442,22.0688145 C28.010023,21.8555357 28.3547601,21.8555357 28.5680389,22.0688145 L31.8403136,25.3410892 C31.8904969,25.3918179 31.9308617,25.4523651 31.9586806,25.5194579 Z"/>
  </defs>
  <use transform="translate(-8 -11)" xlink:href="#eb-change-a"/>
</svg>
