<svg xmlns="http://www.w3.org/2000/svg" xmlns:xlink="http://www.w3.org/1999/xlink" width="24" height="23" viewBox="0 0 24 23">
  <defs>
    <path id="eb-check-a" d="M19.4544804,31.4514853 C13.1386981,31.4514853 8,26.4159379 8,20.2257427 C8,14.0355474 13.1386981,9 19.4544804,9 C21.5882864,9 23.6702746,9.57892759 25.4751734,10.6742393 C25.7315356,10.8292615 25.8100806,11.1585499 25.6518997,11.4097928 C25.4931733,11.6610356 25.1571752,11.7385467 24.9008131,11.5829899 C23.2682769,10.5924518 21.3853785,10.0691183 19.4544804,10.0691183 C13.7397856,10.0691183 9.09090289,14.6251662 9.09090289,20.2257427 C9.09090289,25.8263191 13.7397856,30.382367 19.4544804,30.382367 C25.1691752,30.382367 29.8180579,25.8263191 29.8180579,20.2257427 C29.8180579,19.3212685 29.6964222,18.4232091 29.456969,17.5566887 C29.3778785,17.2717687 29.5496957,16.9782957 29.8404214,16.9007846 C30.1322379,16.8248772 30.4311453,16.9921942 30.5096903,17.2771143 C30.7747797,18.2345097 30.9089607,19.2266516 30.9089607,20.2257427 C30.9089607,26.4159379 25.7702627,31.4514853 19.4544804,31.4514853 Z M15.476503,17.7095726 L19.4544804,21.6081127 L31.068778,10.2257442 C31.2820495,10.0167316 31.6267748,10.0167316 31.8400464,10.2257442 C32.0533179,10.4347568 32.0533179,10.7725982 31.8400464,10.9816109 L19.8401145,22.7419127 C19.7337515,22.8461517 19.5941159,22.8985385 19.4544804,22.8985385 C19.3148448,22.8985385 19.1752092,22.8461517 19.0688462,22.7419127 L14.7052346,18.4654393 C14.4919631,18.2564267 14.4919631,17.9185853 14.7052346,17.7095726 C14.9185061,17.50056 15.2632315,17.50056 15.476503,17.7095726 Z"/>
  </defs>
  <use transform="translate(-8 -9)" xlink:href="#eb-check-a"/>
</svg>
