<svg xmlns="http://www.w3.org/2000/svg" xmlns:xlink="http://www.w3.org/1999/xlink" width="24" height="24" viewBox="0 0 24 24">
  <defs>
    <path id="eb-circledown-a" d="M23.8050435,20.6746087 C24.0090435,20.4706087 24.3387826,20.4706087 24.5427826,20.6746087 C24.7467826,20.8786087 24.7467826,21.2083478 24.5427826,21.4123478 L20.3688696,25.5862609 C20.3208696,25.6342609 20.2629565,25.6723478 20.1993043,25.6989565 C20.1356522,25.7250435 20.0678261,25.7391304 20,25.7391304 C19.9321739,25.7391304 19.8643478,25.7250435 19.8006957,25.6989565 C19.7370435,25.6723478 19.6791304,25.6342609 19.6311304,25.5862609 L15.4572174,21.4123478 C15.2532174,21.2083478 15.2532174,20.8786087 15.4572174,20.6746087 C15.6612174,20.4706087 15.9909565,20.4706087 16.1949565,20.6746087 L19.4782609,23.957913 L19.4782609,13.7391304 C19.4782609,13.4511304 19.712,13.2173913 20,13.2173913 C20.288,13.2173913 20.5217391,13.4511304 20.5217391,13.7391304 L20.5217391,23.957913 L23.8050435,20.6746087 Z M20,8 C26.6166957,8 32,13.3833043 32,20 C32,26.6166957 26.6166957,32 20,32 C13.3833043,32 8,26.6166957 8,20 C8,13.3833043 13.3833043,8 20,8 Z M20,30.9565217 C26.0417391,30.9565217 30.9565217,26.0417391 30.9565217,20 C30.9565217,13.9582609 26.0417391,9.04347826 20,9.04347826 C13.9582609,9.04347826 9.04347826,13.9582609 9.04347826,20 C9.04347826,26.0417391 13.9582609,30.9565217 20,30.9565217 Z"/>
  </defs>
  <use transform="translate(-8 -8)" xlink:href="#eb-circledown-a"/>
</svg>
