<svg xmlns="http://www.w3.org/2000/svg" xmlns:xlink="http://www.w3.org/1999/xlink" width="24" height="24" viewBox="0 0 24 24">
  <defs>
    <path id="eb-clock-a" d="M23.9843871,15.4682581 C24.1357419,15.3169032 24.3803871,15.3169032 24.5317419,15.4682581 C24.6830968,15.6196129 24.6830968,15.8642581 24.5317419,16.0156129 L21.6130323,18.9343226 C21.815871,19.2405161 21.9354839,19.6063226 21.9354839,20 C21.9354839,21.0672258 21.0672258,21.9354839 20,21.9354839 C18.9327742,21.9354839 18.0645161,21.0672258 18.0645161,20 C18.0645161,19.6063226 18.184129,19.2405161 18.3869677,18.9343226 L13.5327742,14.080129 C13.3814194,13.9287742 13.3814194,13.684129 13.5327742,13.5327742 C13.684129,13.3814194 13.9287742,13.3814194 14.080129,13.5327742 L18.9343226,18.3869677 C19.2405161,18.184129 19.6063226,18.0645161 20,18.0645161 C20.3936774,18.0645161 20.7594839,18.184129 21.0656774,18.3869677 L23.9843871,15.4682581 Z M20,21.1612903 C20.6402581,21.1612903 21.1612903,20.6402581 21.1612903,20 C21.1612903,19.3597419 20.6402581,18.8387097 20,18.8387097 C19.3597419,18.8387097 18.8387097,19.3597419 18.8387097,20 C18.8387097,20.6402581 19.3597419,21.1612903 20,21.1612903 Z M20,8 C26.6170323,8 32,13.3833548 32,20 C32,26.6166452 26.6170323,32 20,32 C13.3829677,32 8,26.6166452 8,20 C8,13.3833548 13.3829677,8 20,8 Z M20,31.2258065 C26.1896774,31.2258065 31.2258065,26.1900645 31.2258065,20 C31.2258065,13.8099355 26.1896774,8.77419355 20,8.77419355 C13.8103226,8.77419355 8.77419355,13.8099355 8.77419355,20 C8.77419355,26.1900645 13.8103226,31.2258065 20,31.2258065 Z M20,12.2580645 C19.7859355,12.2580645 19.6129032,12.0846452 19.6129032,11.8709677 L19.6129032,10.7096774 C19.6129032,10.496 19.7859355,10.3225806 20,10.3225806 C20.2140645,10.3225806 20.3870968,10.496 20.3870968,10.7096774 L20.3870968,11.8709677 C20.3870968,12.0846452 20.2140645,12.2580645 20,12.2580645 Z M27.7419355,20 C27.7419355,19.7863226 27.9149677,19.6129032 28.1290323,19.6129032 L29.2903226,19.6129032 C29.5043871,19.6129032 29.6774194,19.7863226 29.6774194,20 C29.6774194,20.2136774 29.5043871,20.3870968 29.2903226,20.3870968 L28.1290323,20.3870968 C27.9149677,20.3870968 27.7419355,20.2136774 27.7419355,20 Z M20,27.7419355 C20.2140645,27.7419355 20.3870968,27.9153548 20.3870968,28.1290323 L20.3870968,29.2903226 C20.3870968,29.504 20.2140645,29.6774194 20,29.6774194 C19.7859355,29.6774194 19.6129032,29.504 19.6129032,29.2903226 L19.6129032,28.1290323 C19.6129032,27.9153548 19.7859355,27.7419355 20,27.7419355 Z M11.8709677,19.6129032 C12.0850323,19.6129032 12.2580645,19.7863226 12.2580645,20 C12.2580645,20.2136774 12.0850323,20.3870968 11.8709677,20.3870968 L10.7096774,20.3870968 C10.4956129,20.3870968 10.3225806,20.2136774 10.3225806,20 C10.3225806,19.7863226 10.4956129,19.6129032 10.7096774,19.6129032 L11.8709677,19.6129032 Z"/>
  </defs>
  <use transform="translate(-8 -8)" xlink:href="#eb-clock-a"/>
</svg>
