<svg xmlns="http://www.w3.org/2000/svg" xmlns:xlink="http://www.w3.org/1999/xlink" width="24" height="20" viewBox="0 0 24 20">
  <defs>
    <path id="eb-code-a" d="M12.7389436,24.6892219 L8.16756943,20.1178478 C7.94414352,19.8944218 7.94414352,19.5332833 8.16756943,19.3098574 L12.7389436,14.7384832 C12.9623695,14.5150573 13.3235081,14.5150573 13.546934,14.7384832 C13.7703599,14.9619091 13.7703599,15.3230477 13.546934,15.5464736 L9.37955501,19.7138526 L13.546934,23.8812315 C13.7703599,24.1046574 13.7703599,24.465796 13.546934,24.6892219 C13.4355067,24.8006491 13.2892227,24.8566485 13.1429388,24.8566485 C12.9966548,24.8566485 12.8503708,24.8006491 12.7389436,24.6892219 Z M26.453066,24.6892219 C26.2296401,24.465796 26.2296401,24.1046574 26.453066,23.8812315 L30.620445,19.7138526 L26.453066,15.5464736 C26.2296401,15.3230477 26.2296401,14.9619091 26.453066,14.7384832 C26.6764919,14.5150573 27.0376305,14.5150573 27.2610564,14.7384832 L31.8324306,19.3098574 C32.0558565,19.5332833 32.0558565,19.8944218 31.8324306,20.1178478 L27.2610564,24.6892219 C27.1496292,24.8006491 27.0033452,24.8566485 26.8570612,24.8566485 C26.7107773,24.8566485 26.5644933,24.8006491 26.453066,24.6892219 Z M21.731408,10.4328202 C21.8079785,10.1265381 22.1194033,9.94139747 22.4239711,10.0168251 C22.7302532,10.0933957 22.9165367,10.4036777 22.8399662,10.7093883 L18.268592,28.9948849 C18.20345,29.2548818 17.9708813,29.4280226 17.7148843,29.4280226 C17.6685992,29.4280226 17.622314,29.4223084 17.5760289,29.41088 C17.2697468,29.3343095 17.0834633,29.0240274 17.1600338,28.7183168 L21.731408,10.4328202 Z"/>
  </defs>
  <use transform="translate(-8 -10)" xlink:href="#eb-code-a"/>
</svg>
