<svg xmlns="http://www.w3.org/2000/svg" xmlns:xlink="http://www.w3.org/1999/xlink" width="24" height="24" viewBox="0 0 24 24">
  <defs>
    <path id="eb-cog-a" d="M20,16.3478261 C22.013913,16.3478261 23.6521739,17.9866087 23.6521739,20 C23.6521739,22.0133913 22.013913,23.6521739 20,23.6521739 C17.986087,23.6521739 16.3478261,22.0133913 16.3478261,20 C16.3478261,17.9866087 17.986087,16.3478261 20,16.3478261 Z M20,22.6086957 C21.4384348,22.6086957 22.6086957,21.4384348 22.6086957,20 C22.6086957,18.5615652 21.4384348,17.3913043 20,17.3913043 C18.5615652,17.3913043 17.3913043,18.5615652 17.3913043,20 C17.3913043,21.4384348 18.5615652,22.6086957 20,22.6086957 Z M31.5215652,17.9151304 C31.7918261,17.9375652 32,18.1629565 32,18.4347826 L32,21.5652174 C32,21.8370435 31.7918261,22.0624348 31.522087,22.0843478 L28.5533913,22.3321739 C28.3572174,23.0526957 28.0697391,23.7445217 27.6961739,24.3961739 L29.621913,26.6714783 C29.7972174,26.8791304 29.7846957,27.185913 29.5926957,27.377913 L27.3789565,29.5916522 C27.1874783,29.7836522 26.8801739,29.7972174 26.6730435,29.6213913 L24.3966957,27.6956522 C23.7445217,28.0692174 23.0526957,28.3566957 22.3326957,28.5528696 L22.0853913,31.5215652 C22.0624348,31.7923478 21.8365217,32 21.5652174,32 L18.4347826,32 C18.1634783,32 17.9375652,31.7923478 17.9151304,31.522087 L17.6678261,28.5533913 C16.9478261,28.3572174 16.256,28.0697391 15.6038261,27.6961739 L13.3274783,29.621913 C13.1208696,29.7977391 12.8135652,29.7836522 12.6215652,29.5921739 L10.4078261,27.3784348 C10.2158261,27.185913 10.2033043,26.8791304 10.3786087,26.672 L12.3043478,24.3966957 C11.9307826,23.7450435 11.6433043,23.0532174 11.4471304,22.3326957 L8.47843478,22.0848696 C8.20817391,22.0624348 8,21.8370435 8,21.5652174 L8,18.4347826 C8,18.1629565 8.20817391,17.9375652 8.47843478,17.9151304 L11.4471304,17.6673043 C11.6433043,16.9473043 11.9302609,16.2554783 12.3043478,15.6033043 L10.3786087,13.3269565 C10.2033043,13.1198261 10.2158261,12.8125217 10.4078261,12.6210435 L12.6210435,10.4083478 C12.8130435,10.2168696 13.1203478,10.2033043 13.3269565,10.3786087 L15.6033043,12.3043478 C16.2554783,11.9307826 16.9473043,11.6433043 17.6673043,11.4471304 L17.9146087,8.47843478 C17.9375652,8.20765217 18.1634783,8 18.4347826,8 L21.5652174,8 C21.8365217,8 22.0624348,8.20765217 22.0848696,8.47843478 L22.3321739,11.4471304 C23.0521739,11.6433043 23.744,11.9307826 24.3961739,12.3043478 L26.6725217,10.378087 C26.8796522,10.2027826 27.1869565,10.2168696 27.3784348,10.4078261 L29.5921739,12.6210435 C29.7841739,12.8130435 29.7966957,13.1203478 29.6213913,13.3269565 L27.6956522,15.6033043 C28.0692174,16.2549565 28.3566957,16.9467826 28.5528696,17.6673043 L31.5215652,17.9151304 Z M30.9565217,21.0852174 L30.9565217,18.9147826 L28.0937391,18.6758261 C27.8667826,18.6570435 27.677913,18.4937391 27.6278261,18.2709565 C27.4332174,17.4069565 27.092,16.5857391 26.6146087,15.8302609 C26.4930435,15.6377391 26.5102609,15.3883478 26.6573913,15.2146087 L28.5147826,13.0191304 L26.9803478,11.4846957 L24.7848696,13.3426087 C24.610087,13.4886957 24.3612174,13.5064348 24.1692174,13.3853913 C23.4126957,12.908 22.5914783,12.5667826 21.7285217,12.3721739 C21.5067826,12.3215652 21.3424348,12.1332174 21.3236522,11.9062609 L21.0852174,9.04347826 L18.9147826,9.04347826 L18.6763478,11.9067826 C18.6575652,12.1337391 18.4937391,12.322087 18.2714783,12.3726957 C17.408,12.5673043 16.5873043,12.9085217 15.8307826,13.385913 C15.6382609,13.5069565 15.3888696,13.4892174 15.2151304,13.3431304 L13.0196522,11.4852174 L11.4852174,13.0196522 L13.3426087,15.2151304 C13.4897391,15.3888696 13.5069565,15.6382609 13.3853913,15.8307826 C12.908,16.5867826 12.5673043,17.4085217 12.3721739,18.2714783 C12.3215652,18.4937391 12.1332174,18.6575652 11.9062609,18.6763478 L9.04347826,18.9147826 L9.04347826,21.0852174 L11.9062609,21.3236522 C12.1332174,21.3424348 12.322087,21.5057391 12.3721739,21.7285217 C12.5667826,22.5925217 12.908,23.4137391 13.3853913,24.1692174 C13.5069565,24.3617391 13.4897391,24.6111304 13.3426087,24.7853913 L11.4852174,26.9798261 L13.0196522,28.5153043 L15.2151304,26.6573913 C15.3888696,26.5107826 15.6382609,26.4925217 15.8307826,26.6146087 C16.5873043,27.092 17.4085217,27.4332174 18.2714783,27.6278261 C18.4932174,27.6784348 18.6575652,27.8667826 18.6763478,28.0937391 L18.9147826,30.9565217 L21.0852174,30.9565217 L21.3236522,28.0932174 C21.3424348,27.8662609 21.5062609,27.677913 21.7285217,27.6273043 C22.592,27.4326957 23.4126957,27.0914783 24.1692174,26.614087 C24.3612174,26.492 24.6106087,26.5102609 24.7848696,26.6568696 L26.9803478,28.5147826 L28.5147826,26.9798261 L26.6573913,24.7853913 C26.5102609,24.6111304 26.4930435,24.3617391 26.6146087,24.1692174 C27.092,23.4132174 27.4326957,22.592 27.6278261,21.7285217 C27.6784348,21.5062609 27.8667826,21.3424348 28.0937391,21.3236522 L30.9565217,21.0852174 Z"/>
  </defs>
  <use transform="translate(-8 -8)" xlink:href="#eb-cog-a"/>
</svg>
