<svg xmlns="http://www.w3.org/2000/svg" xmlns:xlink="http://www.w3.org/1999/xlink" width="18" height="24" viewBox="0 0 18 24">
  <defs>
    <path id="eb-colorlens-a" d="M28.7391304,20 L28.7391304,8.52173913 C28.7391304,8.23373913 28.505913,8 28.2173913,8 L25.0869565,8 C24.9001739,8 24.7269565,8.10017391 24.634087,8.26295652 L23,11.122087 L21.365913,8.26295652 C21.2730435,8.10017391 21.0998261,8 20.9130435,8 L11.5217391,8 C11.2332174,8 11,8.23373913 11,8.52173913 L11,20 C11,22.013913 12.6387826,23.6521739 14.6521739,23.6521739 L17.2608696,23.6521739 L17.2608696,29.3913043 C17.2608696,30.8297391 18.4311304,32 19.8695652,32 C21.308,32 22.4782609,30.8297391 22.4782609,29.3913043 L22.4782609,23.6521739 L25.0869565,23.6521739 C27.1003478,23.6521739 28.7391304,22.013913 28.7391304,20 Z M20.6104348,9.04347826 L22.5471304,12.4326957 C22.7323478,12.7577391 23.2676522,12.7577391 23.4528696,12.4326957 L25.3895652,9.04347826 L27.6956522,9.04347826 L27.6956522,18.4347826 L12.0434783,18.4347826 L12.0434783,9.04347826 L20.6104348,9.04347826 Z M21.9565217,22.6086957 C21.668,22.6086957 21.4347826,22.8424348 21.4347826,23.1304348 L21.4347826,29.3913043 C21.4347826,30.2542609 20.7325217,30.9565217 19.8695652,30.9565217 C19.0066087,30.9565217 18.3043478,30.2542609 18.3043478,29.3913043 L18.3043478,23.1304348 C18.3043478,22.8424348 18.0711304,22.6086957 17.7826087,22.6086957 L14.6521739,22.6086957 C13.2137391,22.6086957 12.0434783,21.4384348 12.0434783,20 L12.0434783,19.4782609 L27.6956522,19.4782609 L27.6956522,20 C27.6956522,21.4384348 26.5253913,22.6086957 25.0869565,22.6086957 L21.9565217,22.6086957 Z"/>
  </defs>
  <use transform="translate(-11 -8)" xlink:href="#eb-colorlens-a"/>
</svg>
