<svg xmlns="http://www.w3.org/2000/svg" width="24" height="24" viewBox="0 0 24 24">
  <path d="M15.7292929,28 C11.9301181,28 8,25.1087898 8,20.2707071 C8,15.6467713 15.1041295,8.43397706 15.4064812,8.12889733 C15.577435,7.95703422 15.8811508,7.95703422 16.0521045,8.12889733 C16.3544563,8.43397706 23.4585858,15.6467713 23.4585858,20.2707071 C23.4585858,25.1087898 19.5284677,28 15.7292929,28 Z M15.7292929,9.10506155 C14.3352922,10.5772645 8.90932857,16.5470066 8.90932857,20.2707071 C8.90932857,24.5395501 12.3765984,27.0906714 15.7292929,27.0906714 C19.0819873,27.0906714 22.5492572,24.5395501 22.5492572,20.2707071 C22.5492572,16.5447333 17.1232936,10.5768098 15.7292929,9.10506155 Z M15.7292929,23.4533571 C14.9036225,23.4533571 12.5466429,22.8686589 12.5466429,20.2707071 C12.5466429,20.0197324 12.7503325,19.8160428 13.0013072,19.8160428 C13.2522818,19.8160428 13.4559714,20.0197324 13.4559714,20.2707071 C13.4559714,22.4462757 15.7065597,22.5440286 15.7292929,22.5440286 C15.9802676,22.5440286 16.1839572,22.7477182 16.1839572,22.9986928 C16.1839572,23.2496675 15.9802676,23.4533571 15.7292929,23.4533571 Z M24.1301736,31.8581217 C23.9563983,31.6843463 23.9563983,31.4034613 24.1301736,31.229686 L27.3714619,27.9883977 L24.1301736,24.7471093 C23.9563983,24.573334 23.9563983,24.292449 24.1301736,24.1186736 C24.303949,23.9448983 24.584834,23.9448983 24.7586093,24.1186736 L27.9998977,27.3599619 L31.241186,24.1186736 C31.4149613,23.9448983 31.6958463,23.9448983 31.8696217,24.1186736 C32.0433971,24.292449 32.0433971,24.573334 31.8696217,24.7471093 L28.6283334,27.9883977 L31.8696217,31.229686 C32.0433971,31.4034613 32.0433971,31.6843463 31.8696217,31.8581217 C31.7829562,31.9447872 31.66918,31.9883421 31.5554038,31.9883421 C31.4416276,31.9883421 31.3278514,31.9447872 31.241186,31.8581217 L27.9998977,28.6168334 L24.7586093,31.8581217 C24.6719439,31.9447872 24.5581677,31.9883421 24.4443915,31.9883421 C24.3306153,31.9883421 24.2168391,31.9447872 24.1301736,31.8581217 Z" transform="translate(-8 -8)"/>
</svg>
