<svg xmlns="http://www.w3.org/2000/svg" xmlns:xlink="http://www.w3.org/1999/xlink" width="24" height="24" viewBox="0 0 24 24">
  <defs>
    <path id="eb-dentist-a" d="M20,22.8571429 C21.2182857,22.8571429 22.3337143,23.4851429 23.4108571,24.7765714 L27.808,29.9737143 C28.28,30.564 28.7645714,30.8571429 29.2571429,30.8571429 C30.1394286,30.8571429 30.8571429,30.1394286 30.8571429,29.2571429 L29.7057143,17.66 L29.7377143,17.5531429 C29.7491429,17.5148571 30.8571429,13.7251429 30.8571429,12 C30.8571429,10.4245714 29.5754286,9.14285714 28,9.14285714 C27.4931429,9.14285714 26.2897143,9.336 23.4325714,10.2582857 C21.1102857,10.992 18.6571429,10.9542857 16.5617143,10.2565714 C13.7102857,9.336 12.5068571,9.14285714 12,9.14285714 C10.4245714,9.14285714 9.14285714,10.4245714 9.14285714,12 C9.14285714,13.7251429 10.2514286,17.5148571 10.2622857,17.5531429 L10.2937143,17.66 L9.14,29.3137143 C9.14285714,30.1394286 9.86057143,30.8571429 10.7428571,30.8571429 C11.3377143,30.8571429 11.8605714,30.3468571 12.2017143,29.9634286 L16.5925714,24.7737143 C17.6234286,23.5217143 18.8034286,22.8571429 20,22.8571429 Z M29.2571429,32 C28.4,32 27.6154286,31.5622857 26.9251429,30.7 L22.5354286,25.512 C21.6862857,24.4931429 20.8582857,24 20,24 C18.9337143,24 18.0354286,24.8194286 17.4697143,25.5062857 L13.0645714,30.7114286 C12.568,31.2708571 11.7977143,32 10.7428571,32 C9.23028571,32 8,30.7697143 8,29.2571429 L9.13485714,17.768 C8.94514286,17.1091429 8,13.7365714 8,12 C8,9.79428571 9.79428571,8 12,8 C12.8685714,8 14.4765714,8.38285714 16.9182857,9.17028571 C17.8617143,9.48514286 18.9542857,9.65714286 20,9.65714286 C21.0222857,9.65714286 22.06,9.49314286 23.0851429,9.16914286 C25.5228571,8.38285714 27.1314286,8 28,8 C30.2051429,8 32,9.79428571 32,12 C32,13.7365714 31.0548571,17.1091429 30.8651429,17.7674286 L31.9971429,29.2011429 C32,30.7697143 30.7697143,32 29.2571429,32 Z M20,15.3713714 C18.7228571,15.3713714 17.556,15.2348 16.4325714,14.9542286 L15.8782857,14.8153714 L16.1554286,13.7068 L16.7102857,13.8456571 C17.7411429,14.1033714 18.8171429,14.2285143 20,14.2285143 C21.1828571,14.2285143 22.2588571,14.1033714 23.2902857,13.8456571 L23.8445714,13.7068 L24.1217143,14.8153714 L23.5668571,14.9542286 C22.444,15.2348 21.2771429,15.3713714 20,15.3713714 Z"/>
  </defs>
  <use fill-rule="evenodd" transform="translate(-8 -8)" xlink:href="#eb-dentist-a"/>
</svg>
