<svg height="48" viewBox="0 0 48 48" width="48" xmlns="http://www.w3.org/2000/svg"><path d="m44 27h-40l-3-4 4-4h38l4 4z" fill="#12376b"/><path d="m41 47h-34c-1.105 0-2-.895-2-2v-42c0-1.105.895-2 2-2h24l12 12v32c0 1.105-.895 2-2 2z" fill="#e6e6e6"/><path d="m31 1v10c0 1.105.895 2 2 2h10z" fill="#b3b3b3"/><path d="m45 41h-42c-1.105 0-2-.895-2-2v-16h46v16c0 1.105-.895 2-2 2z" fill="#27549b"/><g fill="#fff"><path d="m19.525 31.907c0 1.311-.36 2.32-1.082 3.029-.72.71-1.735 1.064-3.043 1.064h-2.54v-7.853h2.718c1.26 0 2.233.322 2.919.967.687.645 1.028 1.575 1.028 2.793zm-2.201.075c0-.72-.143-1.253-.428-1.601-.284-.348-.717-.521-1.297-.521h-.617v4.398h.473c.645 0 1.117-.188 1.418-.562s.451-.944.451-1.714z"/><path d="m28.281 32.062c0 1.322-.324 2.326-.973 3.014s-1.598 1.031-2.847 1.031c-1.231 0-2.177-.346-2.833-1.037-.657-.69-.986-1.697-.986-3.018 0-1.308.327-2.306.98-2.995.654-.689 1.604-1.034 2.85-1.034 1.25 0 2.197.343 2.842 1.026s.967 1.689.967 3.013zm-5.404 0c0 1.519.529 2.277 1.585 2.277.537 0 .936-.184 1.194-.553.26-.369.391-.943.391-1.725 0-.783-.133-1.363-.395-1.737-.264-.374-.656-.562-1.18-.562-1.063.002-1.595.768-1.595 2.3z"/><path d="m33.195 29.775c-.505 0-.898.206-1.182.62-.283.413-.424.983-.424 1.71 0 1.512.574 2.268 1.724 2.268.347 0 .685-.049 1.01-.146s.653-.213.983-.349v1.793c-.656.291-1.396.436-2.225.436-1.185 0-2.094-.344-2.725-1.031-.633-.688-.949-1.682-.949-2.98 0-.813.154-1.527.459-2.144.307-.616.748-1.09 1.322-1.421s1.25-.496 2.027-.496c.849 0 1.66.184 2.434.553l-.649 1.67c-.29-.136-.58-.25-.87-.344-.29-.093-.602-.139-.935-.139z"/></g></svg>