<svg xmlns="http://www.w3.org/2000/svg" xmlns:xlink="http://www.w3.org/1999/xlink" width="20" height="24" viewBox="0 0 20 24">
  <defs>
    <path id="eb-documents-a" d="M0,24 L0,0 L19.826087,0 L19.826087,24 L0,24 Z M1.04347826,22.9565217 L18.7826087,22.9565217 L18.7826087,1.04347826 L1.04347826,1.04347826 L1.04347826,22.9565217 Z M4.17391304,8.86956522 L15.6521739,8.86956522 L15.6521739,4.17391304 L4.17391304,4.17391304 L4.17391304,8.86956522 Z M3.13043478,9.91304348 L3.13043478,3.13043478 L16.6956522,3.13043478 L16.6956522,9.91304348 L3.13043478,9.91304348 Z M3.13043478,13.5652174 L3.13043478,12.5217391 L16.6956522,12.5217391 L16.6956522,13.5652174 L3.13043478,13.5652174 Z M3.13043478,17.2173913 L3.13043478,16.173913 L16.6956522,16.173913 L16.6956522,17.2173913 L3.13043478,17.2173913 Z M3.13043478,20.8695652 L3.13043478,19.826087 L9.91304348,19.826087 L9.91304348,20.8695652 L3.13043478,20.8695652 Z"/>
  </defs>
  <use fill-rule="evenodd" xlink:href="#eb-documents-a"/>
</svg>
