<svg xmlns="http://www.w3.org/2000/svg" xmlns:xlink="http://www.w3.org/1999/xlink" width="24" height="24" viewBox="0 0 24 24">
  <defs>
    <path id="eb-download-a" d="M23.2833043,26.9354783 C23.4873043,26.7314783 23.8170435,26.7314783 24.0210435,26.9354783 C24.2250435,27.1394783 24.2250435,27.4692174 24.0210435,27.6732174 L20.3693913,31.3248696 C20.3208696,31.3733913 20.2634783,31.4114783 20.1993043,31.438087 C20.1356522,31.4641739 20.0678261,31.4782609 20,31.4782609 C19.9321739,31.4782609 19.8643478,31.4641739 19.8006957,31.438087 C19.7365217,31.4114783 19.6786087,31.3733913 19.6306087,31.3248696 L15.9789565,27.6732174 C15.7749565,27.4692174 15.7749565,27.1394783 15.9789565,26.9354783 C16.1829565,26.7314783 16.5126957,26.7314783 16.7166957,26.9354783 L19.4782609,29.6970435 L19.4782609,17.9130435 C19.4782609,17.6245217 19.712,17.3913043 20,17.3913043 C20.288,17.3913043 20.5217391,17.6245217 20.5217391,17.9130435 L20.5217391,29.6970435 L23.2833043,26.9354783 Z M27.7546087,15.3257391 C30.1332174,15.5532174 32,17.5624348 32,20 C32,22.5893913 29.8932174,24.6956522 27.3043478,24.6956522 L24.173913,24.6956522 C23.885913,24.6956522 23.6521739,24.4624348 23.6521739,24.173913 C23.6521739,23.8853913 23.885913,23.6521739 24.173913,23.6521739 L27.3043478,23.6521739 C29.3182609,23.6521739 30.9565217,22.0133913 30.9565217,20 C30.9565217,17.993913 29.3307826,16.3603478 27.3278261,16.3478261 C27.3106087,16.3493913 27.2918261,16.3504348 27.2782609,16.3504348 C27.0033043,16.3504348 26.7758261,16.1365217 26.7575652,15.8626087 C26.506087,12.0387826 23.3083478,9.04347826 19.4782609,9.04347826 C15.5803478,9.04347826 12.3805217,12.0961739 12.1926957,15.9925217 C12.1812174,16.222087 12.022087,16.4172174 11.7998261,16.4735652 C10.1766957,16.8852174 9.04347826,18.3356522 9.04347826,20 C9.04347826,22.0133913 10.6817391,23.6521739 12.6956522,23.6521739 L15.826087,23.6521739 C16.114087,23.6521739 16.3478261,23.8853913 16.3478261,24.173913 C16.3478261,24.4624348 16.114087,24.6956522 15.826087,24.6956522 L12.6956522,24.6956522 C10.1067826,24.6956522 8,22.5893913 8,20 C8,17.9855652 9.28817391,16.2153043 11.1763478,15.5709565 C11.5702609,11.2963478 15.1478261,8 19.4782609,8 C23.6986087,8 27.2469565,11.1815652 27.7546087,15.3257391 Z"/>
  </defs>
  <use transform="translate(-8 -8)" xlink:href="#eb-download-a"/>
</svg>
