<svg xmlns="http://www.w3.org/2000/svg" xmlns:xlink="http://www.w3.org/1999/xlink" width="20" height="24" viewBox="0 0 20 24">
  <defs>
    <path id="eb-edit-a" d="M15.5872617,26.9767734 C15.7353241,26.9767734 15.8777993,26.9181691 15.9822811,26.8132395 L29.3917091,13.4179685 C29.610171,13.1997372 29.610171,12.8469951 29.3917091,12.6287638 L24.9218998,8.16367347 C24.7034378,7.94544218 24.3503229,7.94544218 24.131861,8.16367347 L10.7224329,21.5589444 C10.6173924,21.6633159 10.5587262,21.8050825 10.5587262,21.9535468 L10.5587262,26.4186371 C10.5587262,26.7272865 10.8090355,26.9767734 11.1174523,26.9767734 L15.5872617,26.9767734 Z M24.5268804,9.34748054 L28.2066509,13.0233661 L26.2030589,15.0248429 L22.5232883,11.3489573 L24.5268804,9.34748054 Z M11.6761785,22.1846152 L21.7332495,12.138162 L25.4130201,15.8140476 L15.355949,25.8605008 L11.6761785,25.8605008 L11.6761785,22.1846152 Z M10,31.4418637 C10,31.1332143 10.2503093,30.8837274 10.5587262,30.8837274 L28.4379635,30.8837274 C28.7463804,30.8837274 28.9966897,31.1332143 28.9966897,31.4418637 C28.9966897,31.7505131 28.7463804,32 28.4379635,32 L10.5587262,32 C10.2503093,32 10,31.7505131 10,31.4418637 Z"/>
  </defs>
  <use transform="translate(-10 -8)" xlink:href="#eb-edit-a"/>
</svg>
