<svg xmlns="http://www.w3.org/2000/svg" xmlns:xlink="http://www.w3.org/1999/xlink" width="24" height="20" viewBox="0 0 24 20">
  <defs>
    <path id="eb-education-a" d="M31.7142857,16.9271137 L20.2857143,10.0855199 C20.1142857,9.97149336 19.8857143,9.97149336 19.7142857,10.0855199 L8.28571429,16.9271137 C8.11428571,17.0411403 8,17.2121801 8,17.4402332 C8,17.6112731 8.05714286,17.8393262 8.22857143,17.9533528 L12.5714286,20.9750567 L12.5714286,25.5646259 C12.5714286,27.7881438 15.8285714,29.5555556 20,29.5555556 C24.1714286,29.5555556 27.4285714,27.7881438 27.4285714,25.5646259 L27.4285714,20.9180434 L29.7142857,19.3216715 L29.7142857,26.5623583 C29.7142857,26.904438 29.9428571,27.1324911 30.2857143,27.1324911 C30.6285714,27.1324911 30.8571429,26.904438 30.8571429,26.5623583 L30.8571429,18.5234856 L31.7714286,17.8963395 C31.9428571,17.7823129 32,17.6112731 32,17.38322 C32,17.2121801 31.8857143,17.0411403 31.7142857,16.9271137 Z M20,11.2827988 L30.4,17.4972465 L20,24.7379333 L9.6,17.4972465 L20,11.2827988 Z M26.2857143,25.5646259 C26.2857143,26.9329446 23.7142857,28.4152899 20,28.4152899 C16.2857143,28.4152899 13.7142857,26.9329446 13.7142857,25.5646259 L13.7142857,21.7162293 L19.6571429,25.8781989 C19.7714286,25.9352122 19.8857143,25.9922255 20,25.9922255 C20.1142857,25.9922255 20.2285714,25.9352122 20.3428571,25.8781989 L26.2857143,21.7162293 L26.2857143,25.5646259 Z"/>
  </defs>
  <use transform="translate(-8 -10)" xlink:href="#eb-education-a"/>
</svg>
