<svg xmlns="http://www.w3.org/2000/svg" xmlns:xlink="http://www.w3.org/1999/xlink" width="21" height="24" viewBox="0 0 21 24">
  <defs>
    <path id="eb-eyedroper-a" d="M13.8711785,30.0644108 C13.8711785,31.1316947 13.0028731,32 11.9355892,32 C10.8683053,32 10,31.1316947 10,30.0644108 C10,28.8302791 11.488081,27.2601291 11.6576386,27.0851518 C11.7300297,27.0104381 11.8287447,26.9682422 11.9324923,26.967468 C11.9336536,26.967468 11.934815,26.967468 11.9355892,26.967468 C12.0381755,26.967468 12.1368905,27.0081154 12.2092816,27.0808935 C12.3792263,27.2508383 13.8711785,28.7799537 13.8711785,30.0644108 Z M10.7742357,30.0644108 C10.7742357,30.7047037 11.2952963,31.2257643 11.9355892,31.2257643 C12.5758822,31.2257643 13.0969428,30.7047037 13.0969428,30.0644108 C13.0969428,29.3954711 12.4101957,28.4652269 11.9394604,27.9271331 C11.4671766,28.4783889 10.7742357,29.4256663 10.7742357,30.0644108 Z M29.3752482,8.75357329 C30.3802062,9.7581441 30.3802062,11.3933299 29.3752482,12.3979007 L27.5805699,14.192579 L29.6295847,16.2415938 C29.7809477,16.3929569 29.7809477,16.6376154 29.6295847,16.7889784 L27.6939954,18.7245677 C27.6185075,18.8000557 27.5194053,18.8379932 27.4203031,18.8379932 C27.3212009,18.8379932 27.2220988,18.8000557 27.1466108,18.7245677 L25.097596,16.6755529 L21.500497,20.2726519 C21.5001099,20.2730391 21.5001099,20.2730391 21.5001099,20.2730391 L16.8546957,24.9184532 C16.7923697,24.9807792 16.711075,25.0198781 16.6235864,25.029556 L13.1395257,25.4166739 C13.1255895,25.4182224 13.1112661,25.4189966 13.0969428,25.4189966 C12.9947437,25.4189966 12.8960286,25.3787363 12.8228633,25.3059582 C12.739633,25.223115 12.6985985,25.1065925 12.7117605,24.9896829 L13.0988784,21.5056223 C13.1085563,21.4181337 13.1476552,21.3368389 13.2099812,21.2745129 L14.7584526,19.7260415 C14.7588397,19.7256544 14.7588397,19.7256544 14.7588397,19.7256544 L21.4532686,13.0312255 L19.4042539,10.9822107 C19.2528908,10.8308477 19.2528908,10.5861892 19.4042539,10.4348261 L21.3398431,8.49923686 C21.4912062,8.34787378 21.7358647,8.34787378 21.8872277,8.49923686 L23.9362425,10.5482516 L25.7309208,8.75357329 C26.7354916,7.74900247 28.3702903,7.74861536 29.3752482,8.75357329 Z M16.4033163,24.2750634 L20.2919151,20.3864646 L15.1927988,20.3864646 L13.8537582,21.7255052 L13.5351602,24.5936614 L16.4033163,24.2750634 Z M21.0661508,19.6122289 L24.5502114,16.1281683 L22.0006533,13.5786101 L15.9670345,19.6122289 L21.0661508,19.6122289 Z M28.8278636,11.8505161 C29.5308696,11.1475101 29.5308696,10.0039639 28.8278636,9.30095792 C28.1248576,8.59795191 26.9809244,8.59833903 26.2783055,9.30095792 L24.2099348,11.3693286 C24.0585717,11.5206917 23.8139133,11.5206917 23.6625502,11.3693286 L21.6135354,9.32031381 L20.2253308,10.7085184 L27.4203031,17.9034907 L28.8085077,16.5152861 L26.759493,14.4662714 C26.6081299,14.3149083 26.6081299,14.0702498 26.759493,13.9188867 L28.8278636,11.8505161 Z"/>
  </defs>
  <use transform="translate(-10 -8)" xlink:href="#eb-eyedroper-a"/>
</svg>
