<?xml version="1.0" encoding="UTF-8"?>
<svg width="40px" height="40px" viewBox="0 0 40 40" version="1.1" xmlns="http://www.w3.org/2000/svg" xmlns:xlink="http://www.w3.org/1999/xlink">
    <!-- Generator: Sketch 54.1 (76490) - https://sketchapp.com -->
    <title>icon/24px/socials/fbcolor</title>
    <desc>Created with Sketch.</desc>
    <g id="icon/24px/socials/fbcolor" stroke="none" stroke-width="1" fill="none" fill-rule="evenodd">
        <path d="M31,32 C31.552285,32 32,31.552285 32,31 L32,9 C32,8.447715 31.552285,8 31,8 L9,8 C8.447715,8 8,8.447715 8,9 L8,31 C8,31.552285 8.447715,32 9,32 L31,32 Z" id="White_4_" fill="#39579A" fill-rule="nonzero"></path>
        <path d="M20.759585,32 L20.759585,22.5 L17.5,22.5 L17.5,19 L20.759585,19 L20.759585,16.41269 C20.759585,13.312805 22.65289,11.62486 25.4182,11.62486 C26.74281,11.62486 27.881245,11.72348 28.21302,11.76756 L28.21302,15.00712 L26.29513,15.00799 C24.7912,15.00799 24.5,15.722635 24.5,16.771325 L24.5,19 L28,19 L27.5,22.5 L24.5,22.5 L24.5,32 L20.759585,32 Z" id="White_2_" fill="#FFFFFF" fill-rule="nonzero"></path>
    </g>
</svg>