<svg xmlns="http://www.w3.org/2000/svg" xmlns:xlink="http://www.w3.org/1999/xlink" width="24" height="20" viewBox="0 0 24 20">
  <defs>
    <path id="eb-glasses-a" d="M18.9565217,21.4782609 L21.0434783,21.4782609 L30.7332174,21.4782609 L26.9391304,11.0434783 L24.173913,11.0434783 L24.173913,10 L27.6695652,10 L32,21.9081739 L32,27.2173913 C32,28.6558261 30.8297391,29.826087 29.3913043,29.826087 L23.6521739,29.826087 C22.2137391,29.826087 21.0434783,28.6558261 21.0434783,27.2173913 L21.0434783,22.5217391 L18.9565217,22.5217391 L18.9565217,27.2173913 C18.9565217,28.6558261 17.7862609,29.826087 16.3478261,29.826087 L10.6086957,29.826087 C9.17026087,29.826087 8,28.6558261 8,27.2173913 L8,21.9081739 L12.3304348,10 L15.826087,10 L15.826087,11.0434783 L13.0608696,11.0434783 L9.26678261,21.4782609 L18.9565217,21.4782609 Z M9.04347826,22.5217391 L9.04347826,27.2173913 C9.04347826,28.0803478 9.74573913,28.7826087 10.6086957,28.7826087 L16.3478261,28.7826087 C17.2107826,28.7826087 17.9130435,28.0803478 17.9130435,27.2173913 L17.9130435,22.5217391 L9.04347826,22.5217391 Z M22.0869565,22.5217391 L22.0869565,27.2173913 C22.0869565,28.0803478 22.7892174,28.7826087 23.6521739,28.7826087 L29.3913043,28.7826087 C30.2542609,28.7826087 30.9565217,28.0803478 30.9565217,27.2173913 L30.9565217,22.5217391 L22.0869565,22.5217391 Z"/>
  </defs>
  <use fill-rule="evenodd" transform="translate(-8 -10)" xlink:href="#eb-glasses-a"/>
</svg>
