<svg xmlns="http://www.w3.org/2000/svg" xmlns:xlink="http://www.w3.org/1999/xlink" width="21" height="24" viewBox="0 0 21 24">
  <defs>
    <path id="eb-globe-a" d="M10.5106383,27.9148936 C10.3574468,27.9148936 10.2553191,27.8638298 10.2042553,27.8638298 C10,27.6595745 10,27.3531915 10.2042553,27.1489362 L11.8382979,25.5148936 C11.3787234,25.0553191 11.0212766,24.5446809 10.6638298,23.9829787 C10.5106383,23.7276596 10.5617021,23.4212766 10.8170213,23.2680851 C11.0723404,23.1148936 11.3787234,23.1659574 11.5319149,23.4212766 C11.8893617,24.0340426 12.3489362,24.5957447 12.8595745,25.106383 C14.6468085,26.893617 17.0978723,27.9148936 19.7021277,27.9148936 C25.0638298,27.9148936 29.4042553,23.5744681 29.4042553,18.212766 C29.4042553,14.893617 27.7702128,11.8297872 24.9617021,10.0425532 C24.706383,9.8893617 24.6553191,9.58297872 24.8085106,9.32765957 C24.9617021,9.12340426 25.2680851,9.0212766 25.4723404,9.17446809 C25.9829787,9.48085106 26.4425532,9.83829787 26.9021277,10.2468085 L28.5361702,8.61276596 C28.7404255,8.40851064 29.0468085,8.40851064 29.2510638,8.61276596 C29.4553191,8.81702128 29.4553191,9.12340426 29.2510638,9.32765957 L27.6170213,10.9617021 C29.4042553,12.9021277 30.4255319,15.4553191 30.4255319,18.1617021 C30.4255319,23.8808511 25.8808511,28.5787234 20.212766,28.8340426 L20.212766,30.9276596 L23.787234,30.9276596 C24.093617,30.9276596 24.2978723,31.1319149 24.2978723,31.4382979 C24.2978723,31.7446809 24.093617,31.9489362 23.787234,31.9489362 L15.6170213,31.9489362 C15.3106383,31.9489362 15.106383,31.7446809 15.106383,31.4382979 C15.106383,31.1319149 15.3106383,30.9276596 15.6170213,30.9276596 L19.1914894,30.9276596 L19.1914894,28.8851064 C16.6893617,28.7829787 14.3404255,27.812766 12.5021277,26.1276596 L10.8680851,27.7617021 C10.7659574,27.8638298 10.6638298,27.9148936 10.5106383,27.9148936 Z M19.7021277,25.8723404 C15.4638298,25.8723404 12.0425532,22.4510638 12.0425532,18.212766 C12.0425532,13.9744681 15.4638298,10.5531915 19.7021277,10.5531915 C23.9404255,10.5531915 27.3617021,13.9744681 27.3617021,18.212766 C27.3617021,22.4510638 23.9404255,25.8723404 19.7021277,25.8723404 Z M19.7021277,11.5744681 C16.0255319,11.5744681 13.0638298,14.5361702 13.0638298,18.212766 C13.0638298,21.8893617 16.0255319,24.8510638 19.7021277,24.8510638 C23.3787234,24.8510638 26.3404255,21.8893617 26.3404255,18.212766 C26.3404255,14.5361702 23.3787234,11.5744681 19.7021277,11.5744681 Z"/>
  </defs>
  <use transform="translate(-10 -8)" xlink:href="#eb-globe-a"/>
</svg>
