<svg xmlns="http://www.w3.org/2000/svg" xmlns:xlink="http://www.w3.org/1999/xlink" width="24" height="23" viewBox="0 0 24 23">
  <defs>
    <path id="eb-health-a" d="M25.2173913,9 C28.973913,9 32,12.026087 32,15.7826087 C32,17.1391304 31.4782609,18.6521739 30.5913043,20.1652174 C27.6173913,25.7478261 20.626087,31.5391304 20.2608696,31.8521739 C20.1565217,31.9043478 20.0521739,31.9565217 19.9478261,31.9565217 C19.8434783,31.9565217 19.7391304,31.9565217 19.6347826,31.8521739 C19.2695652,31.5391304 12.2782609,25.7478261 9.30434783,20.1652174 C8.52173913,18.6521739 8,17.1391304 8,15.7826087 C8,12.026087 11.026087,9 14.7826087,9 C16.8173913,9 18.6956522,9.88695652 20,11.4521739 C21.3043478,9.88695652 23.1826087,9 25.2173913,9 Z M20,30.7565217 C21.3565217,29.6086957 26.626087,24.9652174 29.2869565,20.4782609 L23.3913043,20.4782609 L21.4608696,23.4 C21.3565217,23.5043478 21.2,23.6086957 21.0434783,23.6086957 C20.8869565,23.6086957 20.7304348,23.5565217 20.626087,23.4 L16.8695652,17.7652174 L15.2,20.2695652 C15.0956522,20.373913 14.9391304,20.4782609 14.7826087,20.4782609 L10.6608696,20.4782609 C13.373913,24.9652174 18.6434783,29.6086957 20,30.7565217 Z M29.9130435,19.4347826 C30.5391304,18.1304348 30.9565217,16.9304348 30.9565217,15.7826087 C30.9565217,12.6 28.4,10.0434783 25.2173913,10.0434783 C23.2869565,10.0434783 21.5130435,10.9826087 20.4695652,12.6 C20.2608696,12.9130435 19.7913043,12.9130435 19.5826087,12.6 C18.4869565,10.9826087 16.7130435,10.0434783 14.7826087,10.0434783 C11.6,10.0434783 9.04347826,12.6 9.04347826,15.7826087 C9.04347826,16.9304348 9.40869565,18.1304348 10.0869565,19.4347826 L14.5217391,19.4347826 L16.4,16.5130435 C16.6086957,16.2 17.0782609,16.2 17.2869565,16.5130435 L21.0434783,22.1478261 L22.7130435,19.6434783 C22.8173913,19.5391304 22.973913,19.4347826 23.1304348,19.4347826 L29.9130435,19.4347826 Z"/>
  </defs>
  <use transform="translate(-8 -9)" xlink:href="#eb-health-a"/>
</svg>
