<svg xmlns="http://www.w3.org/2000/svg" xmlns:xlink="http://www.w3.org/1999/xlink" width="24" height="22" viewBox="0 0 24 22">
  <defs>
    <path id="eb-home-a" d="M22.0868253,30.9124916 C21.7988292,30.9124916 21.5650931,30.6792773 21.5650931,30.3907594 L21.5650931,25.6951696 L18.4346999,25.6951696 L18.4346999,30.3907594 C18.4346999,30.6792773 18.2009639,30.9124916 17.9129677,30.9124916 L11.6521813,30.9124916 C11.3641851,30.9124916 11.1304491,30.6792773 11.1304491,30.3907594 L11.1304491,18.2897027 L8.87291386,20.3421972 C8.65900365,20.5357599 8.3292689,20.5195862 8.13570626,20.3072411 C7.94214361,20.0938527 7.95727384,19.7641179 8.17066231,19.5700335 L19.6487708,9.13538951 C19.8480725,8.95487016 20.1517206,8.95487016 20.3510223,9.13538951 L31.8291307,19.5700335 C32.0425192,19.7641179 32.0581712,20.0938527 31.8640868,20.3072411 C31.7613056,20.420457 31.6199161,20.4778476 31.478005,20.4778476 C31.3527892,20.4778476 31.2270518,20.4329786 31.1268792,20.3421972 L28.869344,18.2897027 L28.869344,30.3907594 C28.869344,30.6792773 28.6356079,30.9124916 28.3476118,30.9124916 L22.0868253,30.9124916 Z M17.9129677,24.6517052 L22.0868253,24.6517052 C22.3748215,24.6517052 22.6085575,24.8849195 22.6085575,25.1734374 L22.6085575,29.8690272 L27.8258796,29.8690272 L27.8258796,17.3417153 L19.9998965,10.2268533 L12.1739135,17.3411936 L12.1739135,29.8690272 L17.3912355,29.8690272 L17.3912355,25.1734374 C17.3912355,24.8849195 17.6249715,24.6517052 17.9129677,24.6517052 Z M22.6085575,20.9995798 C22.6085575,21.2880977 22.3748215,21.521312 22.0868253,21.521312 L17.9129677,21.521312 C17.6249715,21.521312 17.3912355,21.2880977 17.3912355,20.9995798 L17.3912355,16.8257222 C17.3912355,16.5372043 17.6249715,16.30399 17.9129677,16.30399 L22.0868253,16.30399 C22.3748215,16.30399 22.6085575,16.5372043 22.6085575,16.8257222 L22.6085575,20.9995798 Z M21.5650931,20.4778476 L21.5650931,17.3474544 L18.4346999,17.3474544 L18.4346999,20.4778476 L21.5650931,20.4778476 Z"/>
  </defs>
  <use transform="translate(-8 -9)" xlink:href="#eb-home-a"/>
</svg>
