<svg xmlns="http://www.w3.org/2000/svg" xmlns:xlink="http://www.w3.org/1999/xlink" width="24" height="24" viewBox="0 0 24 24">
  <defs>
    <path id="eb-hospital-a" d="M12,1.04347826 C5.95826087,1.04347826 1.04347826,5.95826087 1.04347826,12 C1.04347826,18.0412174 5.95826087,22.9565217 12,22.9565217 C18.0412174,22.9565217 22.9565217,18.0412174 22.9565217,12 C22.9565217,5.95826087 18.0412174,1.04347826 12,1.04347826 Z M12,24 C5.38330435,24 0,18.6172174 0,12 C0,5.38330435 5.38330435,0 12,0 C18.6172174,0 24,5.38330435 24,12 C24,18.6172174 18.6172174,24 12,24 Z M10.4347826,17.7391304 L13.5652174,17.7391304 L13.5652174,13.5652174 L17.7391304,13.5652174 L17.7391304,10.4347826 L13.5652174,10.4347826 L13.5652174,6.26086957 L10.4347826,6.26086957 L10.4347826,10.4347826 L6.26086957,10.4347826 L6.26086957,13.5652174 L10.4347826,13.5652174 L10.4347826,17.7391304 Z M14.6086957,18.7826087 L9.39130435,18.7826087 L9.39130435,14.6086957 L5.2173913,14.6086957 L5.2173913,9.39130435 L9.39130435,9.39130435 L9.39130435,5.2173913 L14.6086957,5.2173913 L14.6086957,9.39130435 L18.7826087,9.39130435 L18.7826087,14.6086957 L14.6086957,14.6086957 L14.6086957,18.7826087 Z"/>
  </defs>
  <use fill-rule="evenodd" xlink:href="#eb-hospital-a"/>
</svg>
