<svg xmlns="http://www.w3.org/2000/svg" xmlns:xlink="http://www.w3.org/1999/xlink" width="24" height="24" viewBox="0 0 24 24">
  <defs>
    <path id="eb-info-a" d="M20,8 C26.626087,8 32,13.373913 32,20 C32,26.626087 26.626087,32 20,32 C13.373913,32 8,26.626087 8,20 C8,13.373913 13.373913,8 20,8 Z M20,30.9565217 C26.0521739,30.9565217 30.9565217,26.0521739 30.9565217,20 C30.9565217,13.9478261 26.0521739,9.04347826 20,9.04347826 C13.9478261,9.04347826 9.04347826,13.9478261 9.04347826,20 C9.04347826,26.0521739 13.9478261,30.9565217 20,30.9565217 Z M22.0869565,24.6956522 C22.4,24.6956522 22.6086957,24.9043478 22.6086957,25.2173913 C22.6086957,25.5304348 22.4,25.7391304 22.0869565,25.7391304 L17.9130435,25.7391304 C17.6,25.7391304 17.3913043,25.5304348 17.3913043,25.2173913 C17.3913043,24.9043478 17.6,24.6956522 17.9130435,24.6956522 L19.4782609,24.6956522 L19.4782609,19.4782609 L17.9130435,19.4782609 C17.6,19.4782609 17.3913043,19.2695652 17.3913043,18.9565217 C17.3913043,18.6434783 17.6,18.4347826 17.9130435,18.4347826 L20,18.4347826 C20.3130435,18.4347826 20.5217391,18.6434783 20.5217391,18.9565217 L20.5217391,24.6956522 L22.0869565,24.6956522 Z M20,16.3478261 C19.6869565,16.3478261 19.4782609,16.1391304 19.4782609,15.826087 L19.4782609,14.7826087 C19.4782609,14.4695652 19.6869565,14.2608696 20,14.2608696 C20.3130435,14.2608696 20.5217391,14.4695652 20.5217391,14.7826087 L20.5217391,15.826087 C20.5217391,16.1391304 20.3130435,16.3478261 20,16.3478261 Z"/>
  </defs>
  <use fill="#231F20" transform="translate(-8 -8)" xlink:href="#eb-info-a"/>
</svg>
