<?xml version="1.0" encoding="UTF-8"?>
<svg width="24px" height="24px" viewBox="0 0 24 24" version="1.1" xmlns="http://www.w3.org/2000/svg" xmlns:xlink="http://www.w3.org/1999/xlink">
    <!-- Generator: Sketch 54.1 (76490) - https://sketchapp.com -->
    <title>Mask</title>
    <desc>Created with Sketch.</desc>
    <defs>
        <path d="M12,0 C15.259,0 15.6675,0.014 16.9475,0.072 C18.8985,0.161 20.611,0.639 21.986,2.014 C23.3615,3.3895 23.839,5.1025 23.928,7.0525 C23.986,8.3325 24,8.741 24,12 C24,15.259 23.986,15.6675 23.928,16.9475 C23.839,18.8985 23.361,20.611 21.986,21.986 C20.6105,23.3615 18.897,23.839 16.9475,23.928 C15.6675,23.986 15.259,24 12,24 C8.741,24 8.3325,23.986 7.0525,23.928 C5.1015,23.839 3.389,23.361 2.014,21.986 C0.6385,20.6105 0.161,18.8975 0.072,16.9475 C0.014,15.6675 0,15.259 0,12 C0,8.741 0.014,8.3325 0.072,7.0525 C0.161,5.1015 0.639,3.389 2.014,2.014 C3.3895,0.6385 5.1025,0.161 7.0525,0.072 C8.3325,0.014 8.741,0 12,0 Z M12,5.4415 C14.136,5.4415 14.389,5.4495 15.2325,5.488 C16.143,5.5295 16.988,5.712 17.638,6.362 C18.288,7.012 18.4705,7.857 18.512,8.7675 C18.5505,9.611 18.5585,9.864 18.5585,12 C18.5585,14.136 18.5505,14.389 18.512,15.2325 C18.4705,16.143 18.288,16.988 17.638,17.638 C16.988,18.288 16.143,18.4705 15.2325,18.512 C14.389,18.5505 14.136,18.5585 12,18.5585 C9.864,18.5585 9.611,18.5505 8.7675,18.512 C7.857,18.4705 7.012,18.288 6.362,17.638 C5.712,16.988 5.5295,16.143 5.488,15.2325 C5.4495,14.389 5.4415,14.136 5.4415,12 C5.4415,9.864 5.4495,9.611 5.488,8.7675 C5.5295,7.857 5.712,7.012 6.362,6.362 C7.012,5.712 7.857,5.5295 8.7675,5.488 C9.611,5.4495 9.864,5.4415 12,5.4415 Z M12,4 C9.8275,4 9.555,4.009 8.7015,4.048 C7.4015,4.1075 6.2595,4.426 5.3425,5.3425 C4.426,6.259 4.1075,7.401 4.048,8.7015 C4.009,9.555 4,9.8275 4,12 C4,14.1725 4.009,14.445 4.048,15.2985 C4.1075,16.5985 4.426,17.7405 5.3425,18.6575 C6.259,19.574 7.401,19.8925 8.7015,19.952 C9.555,19.991 9.8275,20 12,20 C14.1725,20 14.445,19.991 15.2985,19.952 C16.5985,19.8925 17.7405,19.574 18.6575,18.6575 C19.574,17.741 19.8925,16.599 19.952,15.2985 C19.991,14.445 20,14.1725 20,12 C20,9.8275 19.991,9.555 19.952,8.7015 C19.8925,7.4015 19.574,6.2595 18.6575,5.3425 C17.741,4.426 16.599,4.1075 15.2985,4.048 C14.445,4.009 14.1725,4 12,4 Z M12,7.892 C9.731,7.892 7.892,9.7315 7.892,12 C7.892,14.2685 9.7315,16.108 12,16.108 C14.2685,16.108 16.108,14.2685 16.108,12 C16.108,9.7315 14.269,7.892 12,7.892 Z M12,14.6665 C10.527,14.6665 9.3335,13.4725 9.3335,12 C9.3335,10.527 10.5275,9.3335 12,9.3335 C13.473,9.3335 14.6665,10.5275 14.6665,12 C14.6665,13.473 13.473,14.6665 12,14.6665 Z M16.2705,8.6895 C16.8006934,8.6895 17.2305,8.25969336 17.2305,7.7295 C17.2305,7.19930664 16.8006934,6.7695 16.2705,6.7695 C15.7403066,6.7695 15.3105,7.19930664 15.3105,7.7295 C15.3105,8.25969336 15.7403066,8.6895 16.2705,8.6895 Z" id="path-1"></path>
    </defs>
    <g id="Symbols" stroke="none" stroke-width="1" fill="none" fill-rule="evenodd">
        <g id="icon/24px/socials/insta" transform="translate(-8.000000, -8.000000)">
            <g id="color/CTA" transform="translate(8.000000, 8.000000)">
                <mask id="mask-2" fill="white">
                    <use xlink:href="#path-1"></use>
                </mask>
                <use id="Mask" fill="#FFFFFF" fill-rule="nonzero" xlink:href="#path-1"></use>
            </g>
        </g>
    </g>
</svg>