<?xml version="1.0" encoding="UTF-8"?>
<svg width="40px" height="40px" viewBox="0 0 40 40" version="1.1" xmlns="http://www.w3.org/2000/svg" xmlns:xlink="http://www.w3.org/1999/xlink">
    <!-- Generator: Sketch 54.1 (76490) - https://sketchapp.com -->
    <title>icon/24px/socials/instacolor</title>
    <desc>Created with Sketch.</desc>
    <g id="icon/24px/socials/instacolor" stroke="none" stroke-width="1" fill="none" fill-rule="evenodd">
        <g id="social-color-1-logo-instagram" transform="translate(8.000000, 8.000000)" fill-rule="nonzero">
            <path d="M12,0 C8.741,0 8.3325,0.014 7.0525,0.072 C5.1025,0.161 3.3895,0.6385 2.014,2.014 C0.639,3.389 0.161,5.1015 0.072,7.0525 C0.014,8.3325 0,8.741 0,12 C0,15.259 0.014,15.6675 0.072,16.9475 C0.161,18.8975 0.6385,20.6105 2.014,21.986 C3.389,23.361 5.1015,23.839 7.0525,23.928 C8.3325,23.986 8.741,24 12,24 C15.259,24 15.6675,23.986 16.9475,23.928 C18.897,23.839 20.6105,23.3615 21.986,21.986 C23.361,20.611 23.839,18.8985 23.928,16.9475 C23.986,15.6675 24,15.259 24,12 C24,8.741 23.986,8.3325 23.928,7.0525 C23.839,5.1025 23.3615,3.3895 21.986,2.014 C20.611,0.639 18.8985,0.161 16.9475,0.072 C15.6675,0.014 15.259,0 12,0 L12,0 Z" id="Path" fill="#E02D69"></path>
            <path d="M12,5.4415 C14.136,5.4415 14.389,5.4495 15.2325,5.488 C16.143,5.5295 16.988,5.712 17.638,6.362 C18.288,7.012 18.4705,7.857 18.512,8.7675 C18.5505,9.611 18.5585,9.864 18.5585,12 C18.5585,14.136 18.5505,14.389 18.512,15.2325 C18.4705,16.143 18.288,16.988 17.638,17.638 C16.988,18.288 16.143,18.4705 15.2325,18.512 C14.389,18.5505 14.136,18.5585 12,18.5585 C9.864,18.5585 9.611,18.5505 8.7675,18.512 C7.857,18.4705 7.012,18.288 6.362,17.638 C5.712,16.988 5.5295,16.143 5.488,15.2325 C5.4495,14.389 5.4415,14.136 5.4415,12 C5.4415,9.864 5.4495,9.611 5.488,8.7675 C5.5295,7.857 5.712,7.012 6.362,6.362 C7.012,5.712 7.857,5.5295 8.7675,5.488 C9.611,5.4495 9.864,5.4415 12,5.4415 L12,5.4415 Z M12,4 C9.8275,4 9.555,4.009 8.7015,4.048 C7.4015,4.1075 6.2595,4.426 5.3425,5.3425 C4.426,6.259 4.1075,7.401 4.048,8.7015 C4.009,9.555 4,9.8275 4,12 C4,14.1725 4.009,14.445 4.048,15.2985 C4.1075,16.5985 4.426,17.7405 5.3425,18.6575 C6.259,19.574 7.401,19.8925 8.7015,19.952 C9.555,19.991 9.8275,20 12,20 C14.1725,20 14.445,19.991 15.2985,19.952 C16.5985,19.8925 17.7405,19.574 18.6575,18.6575 C19.574,17.741 19.8925,16.599 19.952,15.2985 C19.991,14.445 20,14.1725 20,12 C20,9.8275 19.991,9.555 19.952,8.7015 C19.8925,7.4015 19.574,6.2595 18.6575,5.3425 C17.741,4.426 16.599,4.1075 15.2985,4.048 C14.445,4.009 14.1725,4 12,4 L12,4 Z" id="Shape" fill="#FFFFFF"></path>
            <path d="M12,7.892 C9.731,7.892 7.892,9.7315 7.892,12 C7.892,14.2685 9.7315,16.108 12,16.108 C14.2685,16.108 16.108,14.2685 16.108,12 C16.108,9.7315 14.269,7.892 12,7.892 Z M12,14.6665 C10.527,14.6665 9.3335,13.4725 9.3335,12 C9.3335,10.527 10.5275,9.3335 12,9.3335 C13.473,9.3335 14.6665,10.5275 14.6665,12 C14.6665,13.473 13.473,14.6665 12,14.6665 Z" id="color_22_" fill="#FFFFFF"></path>
            <circle id="color_21_" fill="#FFFFFF" cx="16.2705" cy="7.7295" r="1"></circle>
        </g>
    </g>
</svg>