<svg xmlns="http://www.w3.org/2000/svg" xmlns:xlink="http://www.w3.org/1999/xlink" width="22" height="24" viewBox="0 0 22 24">
  <defs>
    <path id="eb-life-a" d="M0.52173913,12.5217391 C0.365217391,12.5217391 0.208695652,12.4695652 0.156521739,12.3652174 C0.052173913,12.2608696 -4.97379915e-14,12.1043478 -4.97379915e-14,11.9478261 C0.52173913,6.52173913 4.95652174,2.34782609 10.3826087,2.08695652 L10.3826087,0.52173913 C10.3826087,0.208695652 10.5913043,0 10.9043478,0 C11.2173913,0 11.426087,0.208695652 11.426087,0.52173913 L11.426087,2.08695652 C16.8521739,2.34782609 21.2869565,6.52173913 21.8086957,11.9478261 C21.8086957,12.1043478 21.7565217,12.2608696 21.6521739,12.3652174 C21.6,12.4695652 21.4434783,12.5217391 21.2869565,12.5217391 L11.426087,12.5217391 L11.426087,20.3478261 C11.426087,21.8086957 12.573913,22.9565217 14.0347826,22.9565217 C15.4956522,22.9565217 16.6434783,21.8086957 16.6434783,20.3478261 C16.6434783,20.0347826 16.8521739,19.826087 17.1652174,19.826087 C17.4782609,19.826087 17.6869565,20.0347826 17.6869565,20.3478261 C17.6869565,22.3826087 16.0695652,24 14.0347826,24 C12,24 10.3826087,22.3826087 10.3826087,20.3478261 L10.3826087,12.5217391 L0.52173913,12.5217391 Z M6.20869565,11.4782609 L10.3826087,11.4782609 L10.3826087,3.44347826 C7.77391304,5.06086957 6.20869565,7.87826087 6.20869565,10.9565217 C6.20869565,11.1130435 6.20869565,11.3217391 6.20869565,11.4782609 Z M11.426087,3.44347826 L11.426087,11.4782609 L15.6,11.4782609 C15.6,11.3217391 15.6,11.1130435 15.6,10.9565217 C15.6,7.87826087 14.0347826,5.06086957 11.426087,3.44347826 Z M20.7130435,11.4782609 C20.0347826,7.40869565 17.0086957,4.27826087 13.0956522,3.39130435 C15.3391304,5.2173913 16.6434783,7.9826087 16.6434783,10.9565217 C16.6434783,11.1130435 16.6434783,11.3217391 16.6434783,11.4782609 L20.7130435,11.4782609 Z M8.71304348,3.39130435 C4.8,4.27826087 1.77391304,7.40869565 1.09565217,11.4782609 L5.16521739,11.4782609 C5.16521739,11.3217391 5.16521739,11.1130435 5.16521739,10.9565217 C5.16521739,7.9826087 6.46956522,5.2173913 8.71304348,3.39130435 Z"/>
  </defs>
  <use xlink:href="#eb-life-a"/>
</svg>
