<svg xmlns="http://www.w3.org/2000/svg" xmlns:xlink="http://www.w3.org/1999/xlink" width="24" height="25" viewBox="0 0 24 25">
  <defs>
    <path id="eb-link-a" d="M5.99705455,24.5470364 C4.39450909,24.5470364 2.88741818,23.9230364 1.75450909,22.7895818 C-0.584945455,20.4501273 -0.584945455,16.6439455 1.75450909,14.3044909 L5.84541818,10.2135818 L6.61669091,10.9848545 L2.52578182,15.0757636 C0.611781818,16.9903091 0.611781818,20.1037636 2.52578182,22.0183091 C3.45305455,22.9455818 4.68578182,23.4561273 5.99705455,23.4561273 C7.30832727,23.4561273 8.54105455,22.9455818 9.46832727,22.0183091 L13.1736,18.3130364 C14.1008727,17.3857636 14.6114182,16.1530364 14.6114182,14.8417636 C14.6114182,13.5304909 14.1008727,12.2977636 13.1736,11.3704909 C12.6925091,10.8883091 12.1285091,10.5184909 11.4963273,10.2708545 L10.9885091,10.0717636 L11.3866909,9.05612727 L11.8945091,9.25521818 C12.6674182,9.55849091 13.3579636,10.0106727 13.9454182,10.5992182 C15.0783273,11.7321273 15.7023273,13.2392182 15.7023273,14.8417636 C15.7023273,16.4448545 15.0783273,17.9514 13.9448727,19.0843091 L10.2396,22.7895818 C9.10669091,23.9230364 7.5996,24.5470364 5.99705455,24.5470364 Z M12.6080182,16.0333636 L12.0996545,15.8342727 C11.3256545,15.531 10.6356545,15.0788182 10.0487455,14.4902727 C7.70983636,12.1513636 7.70983636,8.34463636 10.0492909,6.00518182 L13.7545636,2.29990909 C16.0940182,-0.0395454545 19.9002,-0.0395454545 22.2396545,2.29990909 C24.5791091,4.63936364 24.5791091,8.44609091 22.2396545,10.785 L18.1487455,14.8764545 L17.3774727,14.1051818 L21.4683818,10.0137273 C22.3956545,9.08645455 22.9062,7.85372727 22.9062,6.543 C22.9062,5.23118182 22.3956545,3.999 21.4683818,3.07118182 C19.5538364,1.15772727 16.4398364,1.15772727 14.5258364,3.07118182 L10.8205636,6.77645455 C8.90656364,8.691 8.90656364,11.8055455 10.8205636,13.7195455 C11.3011091,14.2017273 11.8651091,14.5704545 12.4978364,14.8186364 L13.0056545,15.0177273 L12.6080182,16.0333636 Z"/>
  </defs>
  <use fill-rule="evenodd" xlink:href="#eb-link-a"/>
</svg>
