<?xml version="1.0" encoding="UTF-8"?>
<svg width="57px" height="80px" viewBox="0 0 57 80" version="1.1" xmlns="http://www.w3.org/2000/svg" xmlns:xlink="http://www.w3.org/1999/xlink">
    <!-- Generator: Sketch 55.2 (78181) - https://sketchapp.com -->
    <title>Group 4</title>
    <desc>Created with Sketch.</desc>
    <g id="HK---HR" stroke="none" stroke-width="1" fill="none" fill-rule="evenodd">
        <g id="HK---Profile-Change-Password-2" transform="translate(-565.000000, -350.000000)" fill-rule="nonzero">
            <g id="Group-3" transform="translate(235.000000, 220.000000)">
                <g id="Group-4" transform="translate(330.000000, 130.000000)">
                    <g id="48px_unlocked">
                        <path d="M16.6666667,31.6666667 L16.6666667,18.3333333 C16.6666667,11.9002333 21.9002333,6.66666667 28.3333333,6.66666667 C34.7664333,6.66666667 40,11.9002333 40,18.3333333 L40,23.3333333 L46.6666667,23.3333333 L46.6666667,18.3333333 C46.6666667,8.22428333 38.4423833,0 28.3333333,0 C18.2242833,0 10,8.22428333 10,18.3333333 L10,31.6666667 L16.6666667,31.6666667 Z" id="Path" fill="#B3B3B3"></path>
                        <path d="M53.3333333,80 L3.33333333,80 C1.49238333,80 0,78.5076167 0,76.6666667 L0,33.3333333 C0,31.4923833 1.49238333,30 3.33333333,30 L53.3333333,30 C55.1742833,30 56.6666667,31.4923833 56.6666667,33.3333333 L56.6666667,76.6666667 C56.6666667,78.5076167 55.1742833,80 53.3333333,80 Z" id="Path" fill="#F0A202"></path>
                        <path d="M35,50 C35,46.31805 32.0152833,43.3333333 28.3333333,43.3333333 C24.6514833,43.3333333 21.6666667,46.31805 21.6666667,50 C21.6666667,52.46135 23.01575,54.5872 25,55.7419833 L25,66.6666667 L31.6666667,66.6666667 L31.6666667,55.7419833 C33.6510167,54.5871 35,52.46135 35,50 Z" id="Path" fill="#4A4A4A"></path>
                    </g>
                </g>
            </g>
        </g>
    </g>
</svg>