<svg xmlns="http://www.w3.org/2000/svg" xmlns:xlink="http://www.w3.org/1999/xlink" width="24" height="19" viewBox="0 0 24 19">
  <defs>
    <path id="eb-money-a" d="M31.6129032,11 C31.8451613,11 32,11.1605351 32,11.4013378 L32,29.0602007 C32,29.3010033 31.8451613,29.4615385 31.6129032,29.4615385 L8.38709677,29.4615385 C8.15483871,29.4615385 8,29.3010033 8,29.0602007 L8,11.4013378 C8,11.1605351 8.15483871,11 8.38709677,11 L31.6129032,11 Z M31.2258065,28.6588629 L31.2258065,11.8026756 L8.77419355,11.8026756 L8.77419355,28.6588629 L31.2258065,28.6588629 Z M20,23.0401338 C18.4903226,23.0401338 17.2903226,21.7959866 17.2903226,20.2307692 C17.2903226,18.6655518 18.4903226,17.4214047 20,17.4214047 C21.5096774,17.4214047 22.7096774,18.6655518 22.7096774,20.2307692 C22.7096774,21.7959866 21.5096774,23.0401338 20,23.0401338 Z M20,18.2240803 C18.916129,18.2240803 18.0645161,19.1070234 18.0645161,20.2307692 C18.0645161,21.3545151 18.916129,22.2374582 20,22.2374582 C21.083871,22.2374582 21.9354839,21.3545151 21.9354839,20.2307692 C21.9354839,19.1070234 21.083871,18.2240803 20,18.2240803 Z M11.5612903,22.8394649 C11.3290323,22.8394649 11.1741935,22.638796 11.1741935,22.4381271 L11.0967742,17.8227425 C11.0967742,17.7023411 11.1354839,17.6220736 11.2129032,17.541806 C11.2903226,17.4615385 11.3677419,17.4214047 11.483871,17.4214047 C13.0322581,17.4214047 14.1935484,16.2173913 14.1935484,14.6120401 C14.1935484,14.3712375 14.3483871,14.2107023 14.5806452,14.2107023 L25.4193548,14.2107023 C25.6516129,14.2107023 25.8064516,14.3712375 25.8064516,14.6120401 C25.8064516,16.2173913 26.9677419,17.4214047 28.516129,17.4214047 C28.7483871,17.4214047 28.9032258,17.5819398 28.9032258,17.8227425 L28.9032258,22.638796 C28.9032258,22.8795987 28.7483871,23.0401338 28.516129,23.0401338 C26.9677419,23.0401338 25.8064516,24.2441472 25.8064516,25.8494983 C25.8064516,26.090301 25.6516129,26.2508361 25.4193548,26.2508361 L14.5806452,26.2508361 C14.3483871,26.2508361 14.1935484,26.090301 14.1935484,25.8494983 C14.1935484,24.2040134 13.0322581,22.8394649 11.5612903,22.8394649 Z M14.9290323,15.0133779 C14.7741935,16.6989967 13.4967742,18.0234114 11.8709677,18.1839465 L11.9483871,21.9966555 C13.5354839,22.1973244 14.8129032,23.6421405 14.9677419,25.4080268 L25.0322581,25.4080268 C25.1870968,23.722408 26.4645161,22.3979933 28.0903226,22.2374582 L28.0903226,18.1839465 C26.4645161,18.0234114 25.1870968,16.6989967 25.0322581,15.0133779 L14.9290323,15.0133779 Z"/>
  </defs>
  <use transform="translate(-8 -11)" xlink:href="#eb-money-a"/>
</svg>
