<svg xmlns="http://www.w3.org/2000/svg" xmlns:xlink="http://www.w3.org/1999/xlink" width="24" height="18" viewBox="0 0 24 18">
  <defs>
    <path id="eb-name-a" d="M14.8571429,19.5714286 C13.4377546,19.5695654 12.2875775,18.4193883 12.2857143,17 C12.2857143,15.5798392 13.4369821,14.4285714 14.8571429,14.4285714 C16.2773036,14.4285714 17.4285714,15.5798392 17.4285714,17 C17.4285714,18.4201608 16.2773036,19.5714286 14.8571429,19.5714286 Z M14.8571429,15.4282951 C13.986481,15.4285696 13.2807387,16.1343119 13.2804642,17.0049737 C13.2804642,17.8757493 13.9863673,18.5816524 14.8571429,18.5816524 C15.7279184,18.5816524 16.4338215,17.8757493 16.4338215,17.0049737 C16.4338215,16.1341982 15.7279184,15.4282951 14.8571429,15.4282951 Z M15.2857143,21.285812 C16.3133281,21.2785788 17.2994733,21.6731356 18.015833,22.3781329 C18.7445124,23.0893036 19.1428571,24.0561238 19.1428571,25.1066112 C19.1420834,25.3630154 18.9250421,25.5706882 18.6570709,25.5714286 L11.9143577,25.5714286 C11.6463865,25.5706882 11.4293452,25.3630154 11.4285714,25.1066112 C11.4285714,24.0561238 11.8269162,23.0893036 12.5555955,22.3781329 C13.2719553,21.6731356 14.2581005,21.2785788 15.2857143,21.285812 Z M12.434149,24.6417937 L18.1372796,24.6417937 C18.0530318,24.0343293 17.7669157,23.468872 17.3211587,23.0288773 C16.7835378,22.5083742 16.0505378,22.2154412 15.2857143,22.2154412 C14.5208908,22.2154412 13.7878908,22.5083742 13.2502699,23.0288773 C12.8036288,23.4682798 12.5173629,24.034033 12.434149,24.6417937 Z M29.5,11 C30.8805061,11.0005051 31.9995033,12.1384684 32,13.5423729 L32,26.4576271 C31.9995033,27.8615316 30.8805061,28.9994949 29.5,29 L10.5,29 C9.11949392,28.9994949 8.00049671,27.8615316 8,26.4576271 L8,13.5423729 C8.00049671,12.1384684 9.11949392,11.0005051 10.5,11 L29.5,11 Z M31,26.4576271 L31,13.5423729 C30.9975835,12.7009246 30.3274241,12.0194066 29.5,12.0169492 L10.5,12.0169492 C9.67257589,12.0194066 9.00241649,12.7009246 9,13.5423729 L9,26.4576271 C9.00241649,27.2990754 9.67257589,27.9805934 10.5,27.9830508 L29.5,27.9830508 C30.3274241,27.9805934 30.9975835,27.2990754 31,26.4576271 Z M28.0690738,19.5714286 C28.3465167,19.5714286 28.5714286,19.7633065 28.5714286,20 C28.5714286,20.2366935 28.3465167,20.4285714 28.0690738,20.4285714 L22.2166405,20.4285714 C21.9391976,20.4285714 21.7142857,20.2366935 21.7142857,20 C21.7142857,19.7633065 21.9391976,19.5714286 22.2166405,19.5714286 L28.0690738,19.5714286 Z M28.0690738,23 C28.3465167,23 28.5714286,23.191878 28.5714286,23.4285714 C28.5714286,23.6652649 28.3465167,23.8571429 28.0690738,23.8571429 L22.2166405,23.8571429 C21.9391976,23.8571429 21.7142857,23.6652649 21.7142857,23.4285714 C21.7142857,23.191878 21.9391976,23 22.2166405,23 L28.0690738,23 Z M28.0690738,16.1428571 C28.3465167,16.1428571 28.5714286,16.3347351 28.5714286,16.5714286 C28.5714286,16.808122 28.3465167,17 28.0690738,17 L22.2166405,17 C21.9391976,17 21.7142857,16.808122 21.7142857,16.5714286 C21.7142857,16.3347351 21.9391976,16.1428571 22.2166405,16.1428571 L28.0690738,16.1428571 Z"/>
  </defs>
  <use transform="translate(-8 -11)" xlink:href="#eb-name-a"/>
</svg>
