<svg xmlns="http://www.w3.org/2000/svg" xmlns:xlink="http://www.w3.org/1999/xlink" width="21" height="21" viewBox="0 0 21 21">
  <defs>
    <path id="eb-nature-a" d="M28,23.5 L28,21 L21,21 L21,23.5 C21,23.8 20.8,24 20.5,24 C20.2,24 20,23.8 20,23.5 L20,21 L13,21 L13,23.5 C13,23.8 12.8,24 12.5,24 C12.2,24 12,23.8 12,23.5 L12,20.5 C12,20.2 12.2,20 12.5,20 L20,20 L20,17.5 C20,17.2 20.2,17 20.5,17 C20.8,17 21,17.2 21,17.5 L21,20 L28.5,20 C28.8,20 29,20.2 29,20.5 L29,23.5 C29,23.8 28.8,24 28.5,24 C28.2,24 28,23.8 28,23.5 Z M23,12.5 C23,13.9 21.9,15 20.5,15 C19.1,15 18,13.9 18,12.5 C18,11.1 19.1,10 20.5,10 C21.9,10 23,11.1 23,12.5 Z M19,12.5 C19,13.35 19.65,14 20.5,14 C21.35,14 22,13.35 22,12.5 C22,11.65 21.35,11 20.5,11 C19.65,11 19,11.65 19,12.5 Z M10,28.5 C10,27.1 11.1,26 12.5,26 C13.9,26 15,27.1 15,28.5 C15,29.9 13.9,31 12.5,31 C11.1,31 10,29.9 10,28.5 Z M12.5,27 C11.65,27 11,27.65 11,28.5 C11,29.35 11.65,30 12.5,30 C13.35,30 14,29.35 14,28.5 C14,27.65 13.35,27 12.5,27 Z M18,28.5 C18,27.1 19.1,26 20.5,26 C21.9,26 23,27.1 23,28.5 C23,29.9 21.9,31 20.5,31 C19.1,31 18,29.9 18,28.5 Z M22,28.5 C22,27.65 21.35,27 20.5,27 C19.65,27 19,27.65 19,28.5 C19,29.35 19.65,30 20.5,30 C21.35,30 22,29.35 22,28.5 Z M28.5,31 C27.1,31 26,29.9 26,28.5 C26,27.1 27.1,26 28.5,26 C29.9,26 31,27.1 31,28.5 C31,29.9 29.9,31 28.5,31 Z M28.5,27 C27.65,27 27,27.65 27,28.5 C27,29.35 27.65,30 28.5,30 C29.35,30 30,29.35 30,28.5 C30,27.65 29.35,27 28.5,27 Z"/>
  </defs>
  <use transform="translate(-10 -10)" xlink:href="#eb-nature-a"/>
</svg>
