<svg xmlns="http://www.w3.org/2000/svg" xmlns:xlink="http://www.w3.org/1999/xlink" width="19" height="23" viewBox="0 0 19 23">
  <defs>
    <path id="eb-out-a" d="M16.852875,15.1465 C17.048375,15.342 17.048375,15.658 16.852875,15.8535 L12.706375,20 L26.499375,20 C26.775875,20 26.999375,20.2235 26.999375,20.5 C26.999375,20.7765 26.775875,21 26.499375,21 L12.706375,21 L16.852875,25.1465 C17.048375,25.342 17.048375,25.658 16.852875,25.8535 C16.755375,25.951 16.627375,26 16.499375,26 C16.371375,26 16.243375,25.951 16.145875,25.8535 L11.146375,20.854 C11.099875,20.808 11.063375,20.7525 11.037875,20.691 C10.987375,20.569 10.987375,20.431 11.037875,20.309 C11.063375,20.2475 11.099875,20.192 11.146375,20.146 L16.145875,15.1465 C16.341375,14.951 16.657375,14.951 16.852875,15.1465 Z M29.999375,31.5 C29.999375,31.7765 29.775875,32 29.499375,32 L17.499375,32 C17.222875,32 16.999375,31.7765 16.999375,31.5 C16.999375,31.2235 17.222875,31 17.499375,31 L28.999375,31 L28.999375,10 L17.499375,10 C17.222875,10 16.999375,9.7765 16.999375,9.5 C16.999375,9.2235 17.222875,9 17.499375,9 L29.499375,9 C29.775875,9 29.999375,9.2235 29.999375,9.5 L29.999375,31.5 Z"/>
  </defs>
  <use transform="translate(-11 -9)" xlink:href="#eb-out-a"/>
</svg>
