<svg xmlns="http://www.w3.org/2000/svg" xmlns:xlink="http://www.w3.org/1999/xlink" width="23" height="21" viewBox="0 0 23 21">
  <defs>
    <path id="eb-payment-a" d="M31.5,19 C31.8,19 32,19.2 32,19.5 L32,30.5 C32,30.8 31.8,31 31.5,31 L9.5,31 C9.2,31 9,30.8 9,30.5 L9,19.5 C9,19.2 9.2,19 9.5,19 L14.3,19 L23.15,10.15 C23.35,9.95 23.65,9.95 23.85,10.15 L26.85,13.15 C27.05,13.35 27.05,13.65 26.85,13.85 L17.85,22.85 C17.75,22.95 17.65,23 17.5,23 L14.5,23 C14.2,23 14,22.8 14,22.5 L14,20 L10,20 L10,30 L31,30 L31,20 L25.5,20 C25.2,20 25,19.8 25,19.5 C25,19.2 25.2,19 25.5,19 L31.5,19 Z M23.5,11.2 L15,19.7 L15,22 L17.3,22 L25.8,13.5 L23.5,11.2 Z M14,26.5 C14,26.2 14.2,26 14.5,26 L26.5,26 C26.8,26 27,26.2 27,26.5 C27,26.8 26.8,27 26.5,27 L14.5,27 C14.2,27 14,26.8 14,26.5 Z"/>
  </defs>
  <use transform="translate(-9 -10)" xlink:href="#eb-payment-a"/>
</svg>
