<svg xmlns="http://www.w3.org/2000/svg" xmlns:xlink="http://www.w3.org/1999/xlink" width="24" height="22" viewBox="0 0 24 22">
  <defs>
    <path id="eb-people-a" d="M9.04347826,29.3452696 L22.6086957,29.3452696 L22.6086957,27.3788348 C22.6086957,26.9217913 22.3029565,26.5111826 21.8652174,26.3797043 L18.401913,25.3409217 C17.8196522,25.1656174 17.3881739,24.6637043 17.302087,24.0626609 L17.0083478,22.0038783 L17.7476522,22.1713565 C19.1646957,22.4937913 20.1935652,22.3910087 20.7773913,22.2642261 C20.0318261,20.9270087 19.5857391,19.4322261 19.4793043,17.9030087 L19.4782609,16.966487 C19.5038261,15.0094435 18.0017391,13.3482261 16.0587826,13.1781391 C14.0542609,13.0471826 12.3158261,14.5706609 12.1817391,16.5798783 C12.1765217,16.6607478 12.173913,16.7421391 12.173913,16.8235304 L12.173913,17.8670087 C12.0669565,19.4280522 11.6203478,20.9270087 10.8747826,22.2647478 C11.4570435,22.3910087 12.4869565,22.4937913 13.9045217,22.1713565 L14.6438261,22.0038783 L14.350087,24.0626609 C14.2650435,24.6626609 13.8346087,25.1645739 13.2544348,25.3404 L9.78695652,26.3797043 C9.34243478,26.5132696 9.04347826,26.9150087 9.04347826,27.3788348 L9.04347826,29.3452696 Z M23.6521739,30.3887478 L8,30.3887478 L8,27.3788348 C8,26.4506609 8.59791304,25.6471826 9.48747826,25.3800522 L12.9533913,24.3412696 C13.1453913,24.2833565 13.2888696,24.1158783 13.3170435,23.9155304 L13.4010435,23.3285739 C11.1669565,23.6677043 9.91165217,23.0577913 9.85373913,23.0296174 L9.33252174,22.7687478 L9.64869565,22.2793565 C10.5095652,20.9489217 11.021913,19.4108348 11.1314783,17.8310087 L11.1304348,16.8235304 C11.1304348,16.7191826 11.1335652,16.6148348 11.1408696,16.510487 C11.2243478,15.2588348 11.7904348,14.1146609 12.7342609,13.2892696 C13.6786087,12.4633565 14.8890435,12.0527478 16.1391304,12.138313 C18.6335652,12.3564 20.554087,14.4798783 20.5217391,16.9732696 L20.5217391,17.8670087 C20.6297391,19.410313 21.1426087,20.9484 22.0034783,22.2793565 L22.3196522,22.7687478 L21.7984348,23.0296174 C21.7405217,23.0577913 20.4852174,23.6677043 18.2511304,23.3285739 L18.3351304,23.9150087 C18.3638261,24.1158783 18.5078261,24.2833565 18.701913,24.3412696 L22.1646957,25.3800522 C23.0542609,25.6471826 23.6521739,26.4506609 23.6521739,27.3788348 L23.6521739,30.3887478 Z M32,30.3887478 L25.7391304,30.3887478 L25.7391304,29.3452696 L30.9565217,29.3452696 L30.9565217,26.2670087 C30.9565217,25.8297913 30.6805217,25.4358783 30.269913,25.2866609 L26.1476522,23.7882261 C25.601913,23.5910087 25.2121739,23.1110087 25.1313043,22.5355304 L24.8125217,20.3019652 L25.1673043,20.1397043 C26.4638261,19.5490957 27.3027826,18.2473565 27.3043478,16.8230087 L27.3043478,13.7311826 C27.3033043,12.7638783 26.516,11.9765739 25.5486957,11.9760522 L25.2267826,11.9755304 L24.5307826,10.5835304 L21.7989565,11.5586609 C21.5307826,11.658313 21.2798261,11.8070087 21.0601739,11.9990087 L20.6673043,12.342313 L19.9806957,11.5565739 L20.3735652,11.2132696 C20.6886957,10.9377913 21.0486957,10.7238783 21.4426087,10.5777913 L24.2594783,9.5724 C24.716,9.42161739 25.2006957,9.61622609 25.4208696,10.0310087 L25.8810435,10.9524 C27.2678261,11.1177913 28.3467826,12.3010957 28.3478261,13.7306609 L28.3478261,16.8235304 C28.3457391,18.5228348 27.418087,20.086487 25.9530435,20.910313 L26.1643478,22.3889217 C26.1914783,22.5814435 26.3213913,22.7416174 26.5034783,22.8073565 L30.6262609,24.306313 C31.4474783,24.6042261 32,25.3925739 32,26.2670087 L32,30.3887478 Z"/>
  </defs>
  <use fill-rule="evenodd" transform="translate(-8 -9)" xlink:href="#eb-people-a"/>
</svg>
