<svg xmlns="http://www.w3.org/2000/svg" xmlns:xlink="http://www.w3.org/1999/xlink" width="24" height="24" viewBox="0 0 24 24">
  <defs>
    <path id="eb-percent-a" d="M20,8 C26.626087,8 32,13.373913 32,20 C32,26.626087 26.626087,32 20,32 C13.373913,32 8,26.626087 8,20 C8,13.373913 13.373913,8 20,8 Z M20,30.9565217 C26.0521739,30.9565217 30.9565217,26.0521739 30.9565217,20 C30.9565217,13.9478261 26.0521739,9.04347826 20,9.04347826 C13.9478261,9.04347826 9.04347826,13.9478261 9.04347826,20 C9.04347826,26.0521739 13.9478261,30.9565217 20,30.9565217 Z M18.9565217,16.3478261 C18.9565217,17.8086957 17.8086957,18.9565217 16.3478261,18.9565217 C14.8869565,18.9565217 13.7391304,17.8086957 13.7391304,16.3478261 C13.7391304,14.8869565 14.8869565,13.7391304 16.3478261,13.7391304 C17.8086957,13.7391304 18.9565217,14.8869565 18.9565217,16.3478261 Z M14.7826087,16.3478261 C14.7826087,17.2347826 15.4608696,17.9130435 16.3478261,17.9130435 C17.2347826,17.9130435 17.9130435,17.2347826 17.9130435,16.3478261 C17.9130435,15.4608696 17.2347826,14.7826087 16.3478261,14.7826087 C15.4608696,14.7826087 14.7826087,15.4608696 14.7826087,16.3478261 Z M24.173913,21.5652174 C25.6347826,21.5652174 26.7826087,22.7130435 26.7826087,24.173913 C26.7826087,25.6347826 25.6347826,26.7826087 24.173913,26.7826087 C22.7130435,26.7826087 21.5652174,25.6347826 21.5652174,24.173913 C21.5652174,22.7130435 22.7130435,21.5652174 24.173913,21.5652174 Z M24.173913,25.7391304 C25.0608696,25.7391304 25.7391304,25.0608696 25.7391304,24.173913 C25.7391304,23.2869565 25.0608696,22.6086957 24.173913,22.6086957 C23.2869565,22.6086957 22.6086957,23.2869565 22.6086957,24.173913 C22.6086957,25.0608696 23.2869565,25.7391304 24.173913,25.7391304 Z M24.5391304,15.4608696 C24.7478261,15.6695652 24.7478261,15.9826087 24.5391304,16.1913043 L16.1913043,24.5391304 C16.0869565,24.6434783 15.9304348,24.6956522 15.826087,24.6956522 C15.7217391,24.6956522 15.5652174,24.6434783 15.4608696,24.5391304 C15.2521739,24.3304348 15.2521739,24.0173913 15.4608696,23.8086957 L23.8086957,15.4608696 C24.0173913,15.2521739 24.3304348,15.2521739 24.5391304,15.4608696 Z"/>
  </defs>
  <use transform="translate(-8 -8)" xlink:href="#eb-percent-a"/>
</svg>
