<svg xmlns="http://www.w3.org/2000/svg" xmlns:xlink="http://www.w3.org/1999/xlink" width="24" height="24" viewBox="0 0 24 24">
  <defs>
    <path id="eb-picture-a" d="M23.4782609,0 C23.7913043,0 24,0.208695652 24,0.52173913 L24,23.4782609 C24,23.7913043 23.7913043,24 23.4782609,24 L0.52173913,24 C0.208695652,24 0,23.7913043 0,23.4782609 L0,0.52173913 C0,0.208695652 0.208695652,0 0.52173913,0 L23.4782609,0 Z M22.9565217,22.9565217 L22.9565217,1.04347826 L1.04347826,1.04347826 L1.04347826,22.9565217 L22.9565217,22.9565217 Z M3.65217391,19.826087 C3.54782609,19.826087 3.39130435,19.773913 3.28695652,19.6695652 C3.07826087,19.5130435 3.02608696,19.1478261 3.23478261,18.9391304 L8.45217391,12.6782609 C8.60869565,12.4695652 8.92173913,12.4173913 9.13043478,12.573913 L13.9826087,15.4956522 L20.0347826,9.54782609 C20.2434783,9.33913043 20.5565217,9.33913043 20.7652174,9.54782609 C20.973913,9.75652174 20.973913,10.0695652 20.7652174,10.2782609 L14.5043478,16.5391304 C14.3478261,16.7478261 14.0869565,16.7478261 13.8782609,16.6434783 L9.02608696,13.7217391 L4.06956522,19.6173913 C3.96521739,19.773913 3.80869565,19.826087 3.65217391,19.826087 Z M9.91304348,9.39130435 C8.45217391,9.39130435 7.30434783,8.24347826 7.30434783,6.7826087 C7.30434783,5.32173913 8.45217391,4.17391304 9.91304348,4.17391304 C11.373913,4.17391304 12.5217391,5.32173913 12.5217391,6.7826087 C12.5217391,8.24347826 11.373913,9.39130435 9.91304348,9.39130435 Z M9.91304348,5.2173913 C9.02608696,5.2173913 8.34782609,5.89565217 8.34782609,6.7826087 C8.34782609,7.66956522 9.02608696,8.34782609 9.91304348,8.34782609 C10.8,8.34782609 11.4782609,7.66956522 11.4782609,6.7826087 C11.4782609,5.89565217 10.8,5.2173913 9.91304348,5.2173913 Z"/>
  </defs>
  <use xlink:href="#eb-picture-a"/>
</svg>
