<svg xmlns="http://www.w3.org/2000/svg" xmlns:xlink="http://www.w3.org/1999/xlink" width="24" height="24" viewBox="0 0 24 24">
  <defs>
    <path id="eb-piechart-a" d="M23.4545455,10.9090909 L13.6363636,10.9090909 C13.3090909,10.9090909 13.0909091,10.6909091 13.0909091,10.3636364 L13.0909091,0.545454545 C13.0909091,0.218181818 13.3090909,4.17443857e-14 13.6363636,4.17443857e-14 C19.3636364,4.17443857e-14 24,4.63636364 24,10.3636364 C24,10.6909091 23.7818182,10.9090909 23.4545455,10.9090909 Z M14.1818182,1.09090909 L14.1818182,9.81818182 L22.9090909,9.81818182 C22.6363636,5.12727273 18.8727273,1.36363636 14.1818182,1.09090909 Z M10.3636364,3.27272727 C10.6909091,3.27272727 10.9090909,3.49090909 10.9090909,3.81818182 L10.9090909,13.0909091 L20.1818182,13.0909091 C20.5090909,13.0909091 20.7272727,13.3090909 20.7272727,13.6363636 C20.7272727,19.3636364 16.0909091,24 10.3636364,24 C4.63636364,24 1.24344979e-13,19.3636364 1.24344979e-13,13.6363636 C1.24344979e-13,7.90909091 4.63636364,3.27272727 10.3636364,3.27272727 Z M19.6363636,14.1818182 L10.3636364,14.1818182 C10.0363636,14.1818182 9.81818182,13.9636364 9.81818182,13.6363636 L9.81818182,4.36363636 C4.96363636,4.63636364 1.09090909,8.72727273 1.09090909,13.6363636 C1.09090909,18.7636364 5.23636364,22.9090909 10.3636364,22.9090909 C15.3272727,22.9090909 19.3636364,19.0363636 19.6363636,14.1818182 Z"/>
  </defs>
  <use xlink:href="#eb-piechart-a"/>
</svg>
