<svg xmlns="http://www.w3.org/2000/svg" xmlns:xlink="http://www.w3.org/1999/xlink" width="18" height="24" viewBox="0 0 18 24">
  <defs>
    <path id="eb-position-a" d="M19.9840137,9.05694279 C16.0870657,9.05694279 12.0569428,12.0221958 12.0569428,16.9840137 C12.0569428,21.829568 18.3658343,28.7879509 19.9840137,30.4922711 C21.6021932,28.7874224 27.9110847,21.8263971 27.9110847,16.9840137 C27.9110847,12.0221958 23.8804333,9.05694279 19.9840137,9.05694279 Z M19.9840137,32 L19.6103845,31.6263707 C19.2584225,31.2749372 11,22.947285 11,16.9840137 C11,11.3605496 15.5681068,8 19.9840137,8 C24.3999207,8 28.9680275,11.3605496 28.9680275,16.9840137 C28.9680275,22.947285 20.7090765,31.2749372 20.357643,31.6263707 L19.9840137,32 Z M19.9840137,14.8701282 C18.8182058,14.8701282 17.8701282,15.8182058 17.8701282,16.9840137 C17.8701282,18.1498216 18.8182058,19.0978993 19.9840137,19.0978993 C21.1498216,19.0978993 22.0978993,18.1498216 22.0978993,16.9840137 C22.0978993,15.8182058 21.1498216,14.8701282 19.9840137,14.8701282 Z M19.9840137,20.1548421 C18.2353019,20.1548421 16.8131854,18.7327256 16.8131854,16.9840137 C16.8131854,15.2353019 18.2353019,13.8131854 19.9840137,13.8131854 C21.7327256,13.8131854 23.1548421,15.2353019 23.1548421,16.9840137 C23.1548421,18.7327256 21.7327256,20.1548421 19.9840137,20.1548421 Z"/>
  </defs>
  <use fill-rule="evenodd" transform="translate(-11 -8)" xlink:href="#eb-position-a"/>
</svg>
