<svg xmlns="http://www.w3.org/2000/svg" xmlns:xlink="http://www.w3.org/1999/xlink" width="19" height="20" viewBox="0 0 19 20">
  <defs>
    <path id="eb-powerbutton-a" d="M9.13043478,20 C4.09565217,20 0,15.903913 0,10.8695652 C0,7.59347826 1.75043478,4.56608696 4.56826087,2.96956522 L4.94652174,2.75478261 L5.37521739,3.51173913 L4.99695652,3.72608696 C2.45130435,5.16869565 0.869565217,7.90608696 0.869565217,10.8695652 C0.869565217,15.4247826 4.57521739,19.1304348 9.13043478,19.1304348 C13.6856522,19.1304348 17.3913043,15.4247826 17.3913043,10.8695652 C17.3913043,7.90391304 15.8465217,5.2326087 13.2591304,3.72304348 L12.883913,3.50434783 L13.3217391,2.75304348 L13.6973913,2.97217391 C16.5547826,4.63913043 18.2608696,7.59130435 18.2608696,10.8695652 C18.2608696,15.903913 14.1647826,20 9.13043478,20 Z M8.69565217,6.95652174 L8.69565217,0 L9.56521739,0 L9.56521739,6.95652174 L8.69565217,6.95652174 Z"/>
  </defs>
  <use fill-rule="evenodd" xlink:href="#eb-powerbutton-a"/>
</svg>
