<svg xmlns="http://www.w3.org/2000/svg" xmlns:xlink="http://www.w3.org/1999/xlink" width="22" height="24" viewBox="0 0 22 24">
  <defs>
    <path id="eb-removeuser-a" d="M1.54459627,15.4375155 L12.7068323,15.4375155 L12.7068323,13.8812422 C12.7068323,13.0084412 12.188647,12.2296606 11.3866832,11.8977988 C10.1811617,11.398074 8.74767304,11.1443478 7.12571429,11.1443478 C5.50375553,11.1443478 4.07026683,11.398074 2.86474534,11.8977988 C2.06278161,12.2296606 1.54459627,13.0084412 1.54459627,13.8812422 L1.54459627,15.4375155 Z M13.5654658,16.2961491 L0.685962733,16.2961491 L0.685962733,13.8812422 C0.685962733,12.659836 1.41193739,11.5698007 2.5358887,11.1044214 C3.84616348,10.5613357 5.3904159,10.2857143 7.12571429,10.2857143 C8.86144199,10.2857143 10.4056944,10.5613357 11.7151106,11.1044214 C12.8394912,11.5698007 13.5654658,12.659836 13.5654658,13.8812422 L13.5654658,16.2961491 Z M7.12571429,1.27006211 C5.46855155,1.27006211 4.12049689,2.61811677 4.12049689,4.2752795 C4.12049689,5.86375155 5.43334758,7.70981366 7.12571429,7.70981366 C8.81808099,7.70981366 10.1309317,5.86375155 10.1309317,4.2752795 C10.1309317,2.61811677 8.7824477,1.27006211 7.12571429,1.27006211 Z M7.12571429,8.5684472 C4.9143036,8.5684472 3.26186335,6.30208398 3.26186335,4.2752795 C3.26186335,2.14500969 4.99544447,0.411428571 7.12571429,0.411428571 C9.25641342,0.411428571 10.9895652,2.14500969 10.9895652,4.2752795 C10.9895652,6.30208398 9.33712497,8.5684472 7.12571429,8.5684472 Z M15.1138806,23.8743036 C14.9618293,23.7222523 14.9618293,23.4764813 15.1138806,23.32443 L17.9499685,20.4883421 L15.1138806,17.6522542 C14.9618293,17.5002029 14.9618293,17.2544319 15.1138806,17.1023806 C15.2659319,16.9503293 15.5117029,16.9503293 15.6637542,17.1023806 L18.4998421,19.9384685 L21.33593,17.1023806 C21.4879813,16.9503293 21.7337523,16.9503293 21.8858036,17.1023806 C22.0378549,17.2544319 22.0378549,17.5002029 21.8858036,17.6522542 L19.0497157,20.4883421 L21.8858036,23.32443 C22.0378549,23.4764813 22.0378549,23.7222523 21.8858036,23.8743036 C21.8099724,23.9501348 21.7104196,23.9882449 21.6108668,23.9882449 C21.511314,23.9882449 21.4117612,23.9501348 21.33593,23.8743036 L18.4998421,21.0382157 L15.6637542,23.8743036 C15.587923,23.9501348 15.4883702,23.9882449 15.3888174,23.9882449 C15.2892646,23.9882449 15.1897118,23.9501348 15.1138806,23.8743036 Z"/>
  </defs>
  <use fill-rule="evenodd" xlink:href="#eb-removeuser-a"/>
</svg>
