<svg xmlns="http://www.w3.org/2000/svg" xmlns:xlink="http://www.w3.org/1999/xlink" width="24" height="24" viewBox="0 0 24 24">
  <defs>
    <path id="eb-search-a" d="M16.6830545,18.0001091 L17.4548727,17.2288364 L23.1352364,22.9092 L22.3639636,23.6804727 L16.6830545,18.0001091 Z M9.27272727,19.0909091 C4.15963636,19.0909091 2.0783375e-13,14.9312727 2.0783375e-13,9.81818182 C2.0783375e-13,4.70509091 4.15963636,0.545454545 9.27272727,0.545454545 C14.3858182,0.545454545 18.5454545,4.70509091 18.5454545,9.81818182 C18.5454545,14.9312727 14.3858182,19.0909091 9.27272727,19.0909091 Z M9.27272727,1.63636364 C4.76127273,1.63636364 1.09090909,5.30672727 1.09090909,9.81818182 C1.09090909,14.3296364 4.76127273,18 9.27272727,18 C13.7841818,18 17.4545455,14.3296364 17.4545455,9.81818182 C17.4545455,5.30672727 13.7841818,1.63636364 9.27272727,1.63636364 Z M4.36363636,9.81818182 L3.27272727,9.81818182 C3.27272727,6.51 5.96454545,3.81818182 9.27272727,3.81818182 L9.27272727,4.90909091 C6.56618182,4.90909091 4.36363636,7.11163636 4.36363636,9.81818182 Z"/>
  </defs>
  <use fill-rule="evenodd" xlink:href="#eb-search-a"/>
</svg>
