<svg xmlns="http://www.w3.org/2000/svg" xmlns:xlink="http://www.w3.org/1999/xlink" width="24" height="20" viewBox="0 0 24 20">
  <defs>
    <path id="eb-server-a" d="M0,9.39130435 L0,0 L24,0 L24,9.39130435 L0,9.39130435 Z M1.04347826,8.34782609 L22.9565217,8.34782609 L22.9565217,1.04347826 L1.04347826,1.04347826 L1.04347826,8.34782609 Z M0,19.826087 L0,10.4347826 L24,10.4347826 L24,19.826087 L0,19.826087 Z M1.04347826,18.7826087 L22.9565217,18.7826087 L22.9565217,11.4782609 L1.04347826,11.4782609 L1.04347826,18.7826087 Z M19.3043478,4.17391304 C19.0163478,4.17391304 18.7826087,4.40817391 18.7826087,4.69565217 C18.7826087,4.98313043 19.0163478,5.2173913 19.3043478,5.2173913 C19.5923478,5.2173913 19.826087,4.98313043 19.826087,4.69565217 C19.826087,4.40817391 19.5923478,4.17391304 19.3043478,4.17391304 Z M19.3043478,6.26086957 C18.4413913,6.26086957 17.7391304,5.5586087 17.7391304,4.69565217 C17.7391304,3.83269565 18.4413913,3.13043478 19.3043478,3.13043478 C20.1673043,3.13043478 20.8695652,3.83269565 20.8695652,4.69565217 C20.8695652,5.5586087 20.1673043,6.26086957 19.3043478,6.26086957 Z M19.3043478,14.6086957 C19.0163478,14.6086957 18.7826087,14.8424348 18.7826087,15.1304348 C18.7826087,15.4184348 19.0163478,15.6521739 19.3043478,15.6521739 C19.5923478,15.6521739 19.826087,15.4184348 19.826087,15.1304348 C19.826087,14.8424348 19.5923478,14.6086957 19.3043478,14.6086957 Z M19.3043478,16.6956522 C18.4413913,16.6956522 17.7391304,15.9933913 17.7391304,15.1304348 C17.7391304,14.2674783 18.4413913,13.5652174 19.3043478,13.5652174 C20.1673043,13.5652174 20.8695652,14.2674783 20.8695652,15.1304348 C20.8695652,15.9933913 20.1673043,16.6956522 19.3043478,16.6956522 Z"/>
  </defs>
  <use fill-rule="evenodd" xlink:href="#eb-server-a"/>
</svg>
