<svg xmlns="http://www.w3.org/2000/svg" xmlns:xlink="http://www.w3.org/1999/xlink" width="24" height="24" viewBox="0 0 24 24">
  <defs>
    <path id="eb-services-a" d="M8.24609402,15.753906 L8.24609402,16.2790362 C8.24609402,19.4639508 10.8376116,22.0554684 14.0225262,22.0554684 C17.0442067,22.0554684 19.5317573,19.7227858 19.7788052,16.7637934 C18.0098513,16.4994746 16.6481772,14.969497 16.6481772,13.128255 C16.6481772,11.1012524 18.2976112,9.45234359 20.3240886,9.45234359 C22.350566,9.45234359 24,11.1012524 24,13.128255 C24,14.9825099 22.6190109,16.521085 20.8318054,16.7692076 C20.579704,20.305469 17.6218582,23.1057288 14.0225262,23.1057288 C10.2583929,23.1057288 7.19583363,20.0431694 7.19583363,16.2790362 L7.19583363,15.753906 L4.30761753,15.753906 C3.01474698,15.753906 1.88886783,14.7955434 1.6882681,13.5252534 L0.00680119947,1.80749815 C-0.0357343467,1.31072498 0.122854973,0.847560141 0.437407963,0.505700382 C0.737257307,0.179594528 1.14213269,0 1.5769405,0 L5.09531283,0 L5.09531283,1.0502604 L1.5769405,1.0502604 C1.40049675,1.0502604 1.2797168,1.14110792 1.20987449,1.21672667 C1.09382071,1.34328305 1.03553126,1.51552575 1.04970978,1.68934385 L2.72697563,13.3687646 C2.84670532,14.1265275 3.52674892,14.7036456 4.30761753,14.7036456 L11.1343101,14.7036456 C11.9340834,14.7036456 12.5994234,14.140706 12.7154771,13.3650887 L14.3953687,1.65836117 C14.4284519,1.45828656 14.3376043,1.31650141 14.27984,1.24875961 C14.1742888,1.12482889 14.0193754,1.0502604 13.8649872,1.0502604 L10.3466148,1.0502604 L10.3466148,0 L13.8649872,0 C14.3313028,0 14.7745127,0.207951559 15.0811887,0.570291396 C15.3789375,0.9216035 15.5070693,1.37689138 15.4335511,1.81905101 L13.7547098,13.5173765 C13.5598865,14.8149732 12.4581634,15.753906 11.1343101,15.753906 L8.24609402,15.753906 Z M20.3240886,10.502604 C18.8763046,10.502604 17.6984376,11.680471 17.6984376,13.128255 C17.6984376,14.5760389 18.8763046,15.753906 20.3240886,15.753906 C21.7718726,15.753906 22.9497396,14.5760389 22.9497396,13.128255 C22.9497396,11.680471 21.7718726,10.502604 20.3240886,10.502604 Z"/>
  </defs>
  <use fill-rule="evenodd" xlink:href="#eb-services-a"/>
</svg>
