<svg xmlns="http://www.w3.org/2000/svg" xmlns:xlink="http://www.w3.org/1999/xlink" width="24" height="23" viewBox="0 0 24 23">
  <defs>
    <path id="eb-share-a" d="M0.52173913,22.9565217 C0.233217391,22.9565217 1.77635684e-13,22.7227826 1.77635684e-13,22.4347826 L1.77635684e-13,7.82608696 C1.77635684e-13,7.53808696 0.233217391,7.30434783 0.52173913,7.30434783 L5.73913043,7.30434783 C6.02765217,7.30434783 6.26086957,7.53808696 6.26086957,7.82608696 C6.26086957,8.11408696 6.02765217,8.34782609 5.73913043,8.34782609 L1.04347826,8.34782609 L1.04347826,21.9130435 L16.6956522,21.9130435 L16.6956522,15.1304348 C16.6956522,14.8424348 16.9288696,14.6086957 17.2173913,14.6086957 C17.505913,14.6086957 17.7391304,14.8424348 17.7391304,15.1304348 L17.7391304,22.4347826 C17.7391304,22.7227826 17.505913,22.9565217 17.2173913,22.9565217 L0.52173913,22.9565217 Z M8.34782609,15.1304348 C8.34782609,9.08869565 13.2631304,4.17391304 19.3043478,4.17391304 L21.6970435,4.17391304 L18.4137391,0.890608696 C18.2097391,0.686608696 18.2097391,0.356869565 18.4137391,0.152869565 C18.6177391,-0.0511304348 18.9474783,-0.0511304348 19.1514783,0.152869565 L23.3248696,4.32626087 C23.3733913,4.37478261 23.4114783,4.43217391 23.438087,4.49634783 C23.4907826,4.62365217 23.4907826,4.76765217 23.438087,4.89495652 C23.4114783,4.95913043 23.3733913,5.01704348 23.3248696,5.06504348 L19.1514783,9.23843478 C19.0497391,9.34017391 18.9161739,9.39130435 18.7826087,9.39130435 C18.6490435,9.39130435 18.5154783,9.34017391 18.4137391,9.23843478 C18.2097391,9.03443478 18.2097391,8.70469565 18.4137391,8.50069565 L21.6970435,5.2173913 L19.3043478,5.2173913 C13.838087,5.2173913 9.39130435,9.66417391 9.39130435,15.1304348 C9.39130435,15.4184348 9.15808696,15.6521739 8.86956522,15.6521739 C8.58104348,15.6521739 8.34782609,15.4184348 8.34782609,15.1304348 Z"/>
  </defs>
  <use fill="#222221" xlink:href="#eb-share-a"/>
</svg>
