<svg xmlns="http://www.w3.org/2000/svg" xmlns:xlink="http://www.w3.org/1999/xlink" width="19" height="24" viewBox="0 0 19 24">
  <defs>
    <path id="eb-tint-a" d="M9.27515146,24 C4.71614172,24 0,20.5305478 0,14.7248485 C0,9.17612558 8.52495539,0.520772475 8.88777749,0.154676791 C9.09292201,-0.0515589302 9.45738091,-0.0515589302 9.66252543,0.154676791 C10.0253475,0.520772475 18.5503029,9.17612558 18.5503029,14.7248485 C18.5503029,20.5305478 13.8341612,24 9.27515146,24 Z M9.27515146,1.32607386 C7.60235061,3.09271741 1.09119429,10.2564079 1.09119429,14.7248485 C1.09119429,19.8474601 5.25191811,22.9088057 9.27515146,22.9088057 C13.2983848,22.9088057 17.4591086,19.8474601 17.4591086,14.7248485 C17.4591086,10.2536799 10.9479523,3.09217182 9.27515146,1.32607386 Z M9.27515146,18.5440286 C8.28434705,18.5440286 5.45597145,17.8423906 5.45597145,14.7248485 C5.45597145,14.4236789 5.70039897,14.1792514 6.00156859,14.1792514 C6.30273822,14.1792514 6.54716574,14.4236789 6.54716574,14.7248485 C6.54716574,17.3355309 9.2478716,17.4528343 9.27515146,17.4528343 C9.57632108,17.4528343 9.8207486,17.6972618 9.8207486,17.9984314 C9.8207486,18.299601 9.57632108,18.5440286 9.27515146,18.5440286 Z"/>
  </defs>
  <use transform="translate(0 .011)" xlink:href="#eb-tint-a"/>
</svg>
