<svg xmlns="http://www.w3.org/2000/svg" xmlns:xlink="http://www.w3.org/1999/xlink" width="23" height="24" viewBox="0 0 23 24">
  <defs>
    <path id="eb-trash-a" d="M7.30434783,4.17391304 L7.30434783,1.56521739 C7.30434783,0.70226087 8.0066087,-1.95399252e-14 8.86956522,-1.95399252e-14 L14.0869565,-1.95399252e-14 C14.949913,-1.95399252e-14 15.6521739,0.70226087 15.6521739,1.56521739 L15.6521739,4.17391304 L22.9565217,4.17391304 L22.9565217,5.2173913 L-1.98951966e-13,5.2173913 L-1.98951966e-13,4.17391304 L7.30434783,4.17391304 Z M8.34782609,4.17391304 L14.6086957,4.17391304 L14.6086957,1.56521739 C14.6086957,1.27773913 14.3749565,1.04347826 14.0869565,1.04347826 L8.86956522,1.04347826 C8.58208696,1.04347826 8.34782609,1.27773913 8.34782609,1.56521739 L8.34782609,4.17391304 Z M16.3084174,24 L6.64789565,24 C5.27937391,24 4.13624348,22.929913 4.04546087,21.5645217 L3.09693913,7.34034783 L4.1378087,7.27095652 L5.08633043,21.4951304 C5.14111304,22.3147826 5.8272,22.9565217 6.64789565,22.9565217 L16.3084174,22.9565217 C17.1296348,22.9565217 17.8157217,22.3147826 17.8699826,21.4951304 L18.8185043,7.27095652 L19.8598957,7.34034783 L18.9113739,21.5645217 C18.8205913,22.929913 17.6774609,24 16.3084174,24 Z"/>
  </defs>
  <use fill-rule="evenodd" xlink:href="#eb-trash-a"/>
</svg>
