<?xml version="1.0" encoding="UTF-8"?>
<svg width="24px" height="20px" viewBox="0 0 24 20" version="1.1" xmlns="http://www.w3.org/2000/svg" xmlns:xlink="http://www.w3.org/1999/xlink">
    <!-- Generator: Sketch 54.1 (76490) - https://sketchapp.com -->
    <title>Mask</title>
    <desc>Created with Sketch.</desc>
    <defs>
        <path d="M24,2.556705 C23.116985,2.948315 22.168055,3.213045 21.171965,3.33204 C22.188625,2.722675 22.969365,1.757705 23.33697,0.6079 C22.38563,1.172175 21.33185,1.581955 20.21025,1.8028 C19.31207,0.8458 18.03238,0.24784 16.616225,0.24784 C13.8968,0.24784 11.69219,2.452455 11.69219,5.17162 C11.69219,5.557575 11.73574,5.93332 11.819665,6.29373 C7.727465,6.088405 4.099315,4.128125 1.670775,1.149115 C1.246935,1.87636 1.00415,2.72216 1.00415,3.624545 C1.00415,5.33279 1.87344,6.83991 3.194615,7.722925 C2.38748,7.69738 1.628255,7.47585 0.964365,7.10704 C0.96402,7.127615 0.963945,7.148195 0.963945,7.16894 C0.963945,9.55466 2.661205,11.54478 4.913745,11.99709 C4.500535,12.10956 4.06554,12.16975 3.616495,12.16975 C3.299205,12.16975 2.99075,12.138885 2.690095,12.081445 C3.31669,14.037615 5.1351,15.461235 7.28974,15.501015 C5.60456,16.821595 3.48147,17.60876 1.17458,17.60876 C0.777135,17.608755 0.38518,17.58544 0,17.54 C2.17907,18.93704 4.767235,19.752155 7.547865,19.752155 C16.604735,19.752155 21.557315,12.2493 21.557315,5.742575 C21.557315,5.529105 21.55252,5.316755 21.543085,5.105605 C22.505055,4.41137 23.33989,3.54413 24,2.556705 Z" id="path-1"></path>
    </defs>
    <g id="Symbols" stroke="none" stroke-width="1" fill="none" fill-rule="evenodd">
        <g id="icon/24px/socials/twitter" transform="translate(-8.000000, -10.000000)">
            <g id="color/CTA" transform="translate(8.000000, 10.000000)">
                <mask id="mask-2" fill="white">
                    <use xlink:href="#path-1"></use>
                </mask>
                <use id="Mask" fill="#FFFFFF" fill-rule="nonzero" xlink:href="#path-1"></use>
            </g>
        </g>
    </g>
</svg>