<svg height="48" viewBox="0 0 48 48" width="48" xmlns="http://www.w3.org/2000/svg"><path d="m44 27h-40l-3-4 4-4h38l4 4z" fill="#939393"/><path d="m41 47h-34c-1.105 0-2-.895-2-2v-42c0-1.105.895-2 2-2h24l12 12v32c0 1.105-.895 2-2 2z" fill="#e6e6e6"/><path d="m31 1v10c0 1.105.895 2 2 2h10z" fill="#b3b3b3"/><path d="m45 41h-42c-1.105 0-2-.895-2-2v-16h46v16c0 1.105-.895 2-2 2z" fill="#b3b3b3"/><g fill="#fff"><path d="m17.836 36h-2.121v-6.117h-1.918v-1.735h5.951v1.735h-1.912z"/><path d="m27.945 36h-2.455l-1.531-2.455-1.514 2.455h-2.401l2.604-4.018-2.449-3.835h2.354l1.418 2.428 1.363-2.428h2.423l-2.487 4.001z"/><path d="m32.29 36h-2.122v-6.117h-1.917v-1.735h5.951v1.735h-1.912z"/></g></svg>