<svg xmlns="http://www.w3.org/2000/svg" xmlns:xlink="http://www.w3.org/1999/xlink" width="24" height="17" viewBox="0 0 24 17">
  <defs>
    <path id="eb-upload-a" d="M23.4993043,21.5441739 C23.7033043,21.7481739 23.7033043,22.0784348 23.4993043,22.281913 C23.3975652,22.3836522 23.264,22.4347826 23.1304348,22.4347826 C22.9968696,22.4347826 22.8633043,22.3836522 22.7615652,22.281913 L20.5217391,20.042087 L20.5217391,27.1304348 C20.5217391,27.4189565 20.2885217,27.6521739 20,27.6521739 C19.7114783,27.6521739 19.4782609,27.4189565 19.4782609,27.1304348 L19.4782609,20.042087 L17.237913,22.281913 C17.033913,22.485913 16.7041739,22.485913 16.5001739,22.281913 C16.2961739,22.077913 16.2961739,21.7481739 16.5001739,21.5441739 L19.630087,18.4142609 C19.678087,18.3662609 19.736,18.3276522 19.8001739,18.3010435 C19.928,18.2483478 20.0714783,18.2483478 20.1987826,18.3010435 C20.2634783,18.3276522 20.3213913,18.3657391 20.3693913,18.4142609 L23.4993043,21.5441739 Z M27.7546087,19.3257391 C30.1337391,19.5537391 32,21.5629565 32,24 C32,26.5893913 29.8937391,28.6956522 27.3043478,28.6956522 L24.173913,28.6956522 C23.8853913,28.6956522 23.6521739,28.4624348 23.6521739,28.173913 C23.6521739,27.8853913 23.8853913,27.6521739 24.173913,27.6521739 L27.3043478,27.6521739 C29.3177391,27.6521739 30.9565217,26.0133913 30.9565217,24 C30.9565217,21.993913 29.3307826,20.3603478 27.3278261,20.3478261 C27.3106087,20.3493913 27.2918261,20.3504348 27.2782609,20.3504348 C27.0038261,20.3504348 26.7758261,20.1375652 26.7575652,19.8626087 C26.506087,16.0387826 23.3083478,13.0434783 19.4782609,13.0434783 C15.5798261,13.0434783 12.38,16.0961739 12.1926957,19.9925217 C12.1812174,20.222087 12.022087,20.4172174 11.7998261,20.4735652 C10.1772174,20.8852174 9.04347826,22.3356522 9.04347826,24 C9.04347826,26.0133913 10.6822609,27.6521739 12.6956522,27.6521739 L15.826087,27.6521739 C16.1146087,27.6521739 16.3478261,27.8853913 16.3478261,28.173913 C16.3478261,28.4624348 16.1146087,28.6956522 15.826087,28.6956522 L12.6956522,28.6956522 C10.1062609,28.6956522 8,26.5893913 8,24 C8,21.9855652 9.28817391,20.2153043 11.1763478,19.5709565 C11.5702609,15.2963478 15.1473043,12 19.4782609,12 C23.6986087,12 27.2474783,15.1815652 27.7546087,19.3257391 Z"/>
  </defs>
  <use transform="translate(-8 -12)" xlink:href="#eb-upload-a"/>
</svg>
