<?xml version="1.0" encoding="utf-8"?>
<!-- Generator: Adobe Illustrator 22.1.0, SVG Export Plug-In . SVG Version: 6.00 Build 0)  -->
<svg version="1.1" id="Calque_1" xmlns="http://www.w3.org/2000/svg" xmlns:xlink="http://www.w3.org/1999/xlink" x="0px" y="0px"
	 viewBox="0 0 48 48" style="enable-background:new 0 0 48 48;" xml:space="preserve">
<style type="text/css">
	.st0{fill:#E6E6E6;}
	.st1{fill:#B3B3B3;}
	.st2{fill:#005792;}
</style>
<path class="st0" d="M41,47H7c-1.1,0-2-0.9-2-2V3c0-1.1,0.9-2,2-2h24l12,12v32C43,46.1,42.1,47,41,47z"/>
<path class="st1" d="M31,1v10c0,1.1,0.9,2,2,2h10L31,1z"/>
<path class="st2" d="M19.2,38c-1.5,0-3.1-0.6-4.3-1.8c-2.4-2.4-2.4-6.1,0-8.5l2.5-2.4c0.4-0.4,1-0.4,1.4,0c0.4,0.4,0.4,1,0,1.4
	l-2.5,2.4c-1.6,1.6-1.6,4,0,5.7c1.6,1.6,4.1,1.6,5.7,0l2.8-2.8c1.6-1.6,1.6-4.1,0-5.7c-0.4-0.4-0.4-1,0-1.4s1-0.4,1.4,0
	c2.4,2.4,2.4,6.1,0,8.5l-2.8,2.8C22.3,37.4,20.8,38,19.2,38z"/>
<path class="st2" d="M22.8,29.4c-0.3,0-0.5-0.1-0.7-0.3c-2.4-2.4-2.4-6.1,0-8.5l2.8-2.8c2.4-2.4,6.1-2.4,8.5,0s2.4,6.1,0,8.5
	l-2.5,2.4c-0.4,0.4-1,0.4-1.4,0c-0.4-0.4-0.4-1,0-1.4l2.5-2.4c1.6-1.6,1.6-4,0-5.7c-1.6-1.6-4.1-1.6-5.7,0L23.5,22
	c-1.6,1.6-1.6,4.1,0,5.7c0.4,0.4,0.4,1,0,1.4C23.3,29.3,23.1,29.4,22.8,29.4z"/>
</svg>
