<svg xmlns="http://www.w3.org/2000/svg" xmlns:xlink="http://www.w3.org/1999/xlink" width="12" height="24" viewBox="0 0 12 24">
  <defs>
    <path id="eb-user-a" d="M16.91672,18.18158 C15.99512,18.19238 15.20612,18.91238 15.17852,19.81718 C15.13172,21.30998 15.16592,22.80638 15.16592,24.33338 C15.75572,24.49118 16.29932,24.68198 16.85852,24.77378 C17.37332,24.85838 17.54612,25.08698 17.58332,25.60778 C17.69672,27.17438 17.88812,28.73378 18.02132,30.29918 C18.05672,30.72278 18.23312,30.84398 18.63452,30.83378 C19.53272,30.81158 20.43272,30.80438 21.33032,30.83618 C21.79952,30.85298 21.91712,30.65378 21.95312,30.22838 C22.08692,28.63838 22.23452,27.04958 22.43072,25.46618 C22.46012,25.23218 22.73792,24.92738 22.97072,24.83858 C23.54612,24.61898 24.16232,24.50618 24.80012,24.33998 C24.80012,22.78478 24.83972,21.26378 24.78392,19.74638 C24.75272,18.88958 23.94452,18.19178 23.05712,18.18158 L16.91672,18.18158 Z M16.98452,32.00018 C16.86872,30.51278 16.79552,29.02058 16.62572,27.53978 C16.42892,25.82738 16.39112,25.83218 14.70392,25.40198 C14.48792,25.34678 14.27432,25.28438 14.02172,25.21478 C14.02172,23.37698 13.96232,21.55598 14.04032,19.74038 C14.10572,18.21578 15.38492,17.05718 16.91852,17.03558 C18.96452,17.00618 21.01172,16.99718 23.05772,17.03978 C24.28052,17.06558 25.17932,17.68358 25.70012,18.81158 C25.79132,19.00898 25.88972,19.20398 25.98452,19.40018 L25.98452,25.25018 C25.74212,25.30178 25.49732,25.34618 25.25612,25.40558 C23.57912,25.81658 23.54252,25.81298 23.34272,27.54518 C23.17292,29.02418 23.10032,30.51458 22.98452,32.00018 L16.98452,32.00018 Z M16.3478261,11.6521739 C16.3478261,13.666087 17.986087,15.3043478 20,15.3043478 C22.013913,15.3043478 23.6521739,13.666087 23.6521739,11.6521739 C23.6521739,9.63826087 22.013913,8 20,8 C17.986087,8 16.3478261,9.63826087 16.3478261,11.6521739 Z M22.6086957,11.6521739 C22.6086957,13.0906087 21.4384348,14.2608696 20,14.2608696 C18.5615652,14.2608696 17.3913043,13.0906087 17.3913043,11.6521739 C17.3913043,10.2137391 18.5615652,9.04347826 20,9.04347826 C21.4384348,9.04347826 22.6086957,10.2137391 22.6086957,11.6521739 Z"/>
  </defs>
  <use transform="translate(-14 -8)" xlink:href="#eb-user-a"/>
</svg>
