<svg xmlns="http://www.w3.org/2000/svg" xmlns:xlink="http://www.w3.org/1999/xlink" width="24" height="24" viewBox="0 0 24 24">
  <defs>
    <path id="eb-users-a" d="M9.56521739,12.173913 C9.56521739,10.7354783 10.7354783,9.56521739 12.173913,9.56521739 C13.6123478,9.56521739 14.7826087,10.7354783 14.7826087,12.173913 C14.7826087,13.6123478 13.6123478,14.7826087 12.173913,14.7826087 C10.7354783,14.7826087 9.56521739,13.6123478 9.56521739,12.173913 Z M13.7391304,12.173913 C13.7391304,11.3109565 13.0368696,10.6086957 12.173913,10.6086957 C11.3109565,10.6086957 10.6086957,11.3109565 10.6086957,12.173913 C10.6086957,13.0368696 11.3109565,13.7391304 12.173913,13.7391304 C13.0368696,13.7391304 13.7391304,13.0368696 13.7391304,12.173913 Z M25.2173913,12.173913 C25.2173913,10.7354783 26.3876522,9.56521739 27.826087,9.56521739 C29.2645217,9.56521739 30.4347826,10.7354783 30.4347826,12.173913 C30.4347826,13.6123478 29.2645217,14.7826087 27.826087,14.7826087 C26.3876522,14.7826087 25.2173913,13.6123478 25.2173913,12.173913 Z M29.3913043,12.173913 C29.3913043,11.3109565 28.6890435,10.6086957 27.826087,10.6086957 C26.9631304,10.6086957 26.2608696,11.3109565 26.2608696,12.173913 C26.2608696,13.0368696 26.9631304,13.7391304 27.826087,13.7391304 C28.6890435,13.7391304 29.3913043,13.0368696 29.3913043,12.173913 Z M29.3913043,16.3478261 C30.8297391,16.3478261 32,17.518087 32,18.9565217 L32,23.6521739 C32,23.8770435 31.8565217,24.0758261 31.6431304,24.1467826 L30.4013913,24.5605217 L29.9109565,29.96 C29.8864348,30.2286957 29.6610435,30.4347826 29.3913043,30.4347826 L26.2608696,30.4347826 C25.9728696,30.4347826 25.7391304,30.2010435 25.7391304,29.9130435 C25.7391304,29.6250435 25.9728696,29.3913043 26.2608696,29.3913043 L28.9149565,29.3913043 L29.3933913,24.1264348 C29.4121739,23.9198261 29.5514783,23.744 29.7481739,23.6787826 L30.9565217,23.276 L30.9565217,18.9565217 C30.9565217,18.0935652 30.2542609,17.3913043 29.3913043,17.3913043 L26.2608696,17.3913043 C25.8361739,17.3913043 25.4443478,17.5608696 25.1547826,17.8530435 C25.5142609,18.3001739 25.7391304,18.8610435 25.7391304,19.4782609 L25.7391304,24.6956522 C25.7391304,24.9351304 25.5763478,25.1438261 25.3441739,25.2017391 L23.6193043,25.6326957 L23.1288696,31.5215652 C23.105913,31.7923478 22.88,32 22.6086957,32 L17.3913043,32 C17.12,32 16.894087,31.7923478 16.8711304,31.5215652 L16.3806957,25.6326957 L14.6558261,25.2017391 C14.4236522,25.1438261 14.2608696,24.9351304 14.2608696,24.6956522 L14.2608696,19.4782609 C14.2608696,18.8610435 14.4857391,18.3001739 14.8452174,17.8530435 C14.5556522,17.5608696 14.1638261,17.3913043 13.7391304,17.3913043 L10.6086957,17.3913043 C9.74573913,17.3913043 9.04347826,18.0935652 9.04347826,18.9565217 L9.04347826,23.276 L10.2518261,23.6793043 C10.4485217,23.7445217 10.5878261,23.9203478 10.6066087,24.1269565 L11.0850435,29.3913043 L13.7391304,29.3913043 C14.0271304,29.3913043 14.2608696,29.6250435 14.2608696,29.9130435 C14.2608696,30.2010435 14.0271304,30.4347826 13.7391304,30.4347826 L10.6086957,30.4347826 C10.3389565,30.4347826 10.1135652,30.2286957 10.0890435,29.9605217 L9.5986087,24.5610435 L8.35686957,24.1473043 C8.14347826,24.0758261 8,23.8770435 8,23.6521739 L8,18.9565217 C8,17.518087 9.17026087,16.3478261 10.6086957,16.3478261 L13.7391304,16.3478261 C14.4674783,16.3478261 15.1587826,16.6624348 15.6481739,17.1873043 C16.0144348,16.9911304 16.426087,16.8695652 16.8695652,16.8695652 L23.1304348,16.8695652 C23.573913,16.8695652 23.9855652,16.9911304 24.3518261,17.1873043 C24.8412174,16.6624348 25.5325217,16.3478261 26.2608696,16.3478261 L29.3913043,16.3478261 Z M24.6956522,24.2881739 L24.6956522,19.4782609 C24.6956522,18.6153043 23.9933913,17.9130435 23.1304348,17.9130435 L16.8695652,17.9130435 C16.0066087,17.9130435 15.3043478,18.6153043 15.3043478,19.4782609 L15.3043478,24.2881739 L16.9963478,24.7113043 C17.2128696,24.7655652 17.3709565,24.9513043 17.3897391,25.174087 L17.8713043,30.9565217 L22.1286957,30.9565217 L22.6102609,25.174087 C22.6290435,24.9513043 22.7871304,24.7655652 23.0036522,24.7113043 L24.6956522,24.2881739 Z M16.3478261,11.6521739 C16.3478261,9.63826087 17.986087,8 20,8 C22.013913,8 23.6521739,9.63826087 23.6521739,11.6521739 C23.6521739,13.666087 22.013913,15.3043478 20,15.3043478 C17.986087,15.3043478 16.3478261,13.666087 16.3478261,11.6521739 Z M22.6086957,11.6521739 C22.6086957,10.2137391 21.4384348,9.04347826 20,9.04347826 C18.5615652,9.04347826 17.3913043,10.2137391 17.3913043,11.6521739 C17.3913043,13.0906087 18.5615652,14.2608696 20,14.2608696 C21.4384348,14.2608696 22.6086957,13.0906087 22.6086957,11.6521739 Z"/>
  </defs>
  <use transform="translate(-8 -8)" xlink:href="#eb-users-a"/>
</svg>
