<svg height="48" viewBox="0 0 48 48" width="48" xmlns="http://www.w3.org/2000/svg"><path d="m44 27h-40l-3-4 4-4h38l4 4z" fill="#0e512b"/><path d="m41 47h-34c-1.105 0-2-.895-2-2v-42c0-1.105.895-2 2-2h24l12 12v32c0 1.105-.895 2-2 2z" fill="#e6e6e6"/><path d="m31 1v10c0 1.105.895 2 2 2h10z" fill="#b3b3b3"/><path d="m45 41h-42c-1.105 0-2-.895-2-2v-16h46v16c0 1.105-.895 2-2 2z" fill="#1b7343"/><g fill="#fff"><path d="m17.592 36h-2.455l-1.531-2.455-1.514 2.455h-2.401l2.605-4.018-2.449-3.835h2.353l1.418 2.428 1.364-2.428h2.422l-2.487 4.001z"/><path d="m18.473 36v-7.853h2.122v6.14h3.024v1.713z"/><path d="m30.01 33.615c0 .487-.124.919-.371 1.297s-.604.672-1.069.881c-.465.21-1.012.314-1.638.314-.523 0-.961-.037-1.316-.11s-.723-.201-1.106-.384v-1.891c.405.208.825.37 1.262.486s.838.174 1.203.174c.315 0 .546-.054.693-.163s.22-.25.22-.422c0-.107-.03-.201-.088-.282-.06-.08-.154-.162-.285-.244-.13-.082-.479-.251-1.044-.505-.512-.232-.896-.458-1.152-.677s-.446-.469-.569-.752c-.124-.283-.186-.617-.186-1.004 0-.724.263-1.288.79-1.692s1.25-.606 2.17-.606c.813 0 1.642.188 2.487.563l-.65 1.638c-.734-.336-1.368-.504-1.901-.504-.276 0-.476.048-.602.145s-.188.217-.188.359c0 .154.08.292.239.414s.591.344 1.297.666c.677.305 1.146.631 1.41.98.262.35.394.789.394 1.319z"/><path d="m38.298 36h-2.455l-1.531-2.455-1.514 2.455h-2.401l2.605-4.018-2.449-3.835h2.353l1.418 2.428 1.364-2.428h2.422l-2.487 4.001z"/></g></svg>