<?xml version="1.0" encoding="UTF-8"?>
<svg width="24px" height="17px" viewBox="0 0 24 17" version="1.1" xmlns="http://www.w3.org/2000/svg" xmlns:xlink="http://www.w3.org/1999/xlink">
    <!-- Generator: Sketch 54.1 (76490) - https://sketchapp.com -->
    <title>Mask</title>
    <desc>Created with Sketch.</desc>
    <defs>
        <path d="M23.760335,3.701495 C23.760335,3.701495 24,5.64366 24,7.58582 L24,9.406605 C24,11.348745 23.76034,13.29091 23.76034,13.29091 C23.76034,13.29091 23.525815,14.944785 22.80625,15.673095 C21.89362,16.629 20.870645,16.633725 20.40153,16.68969 C17.043065,16.932455 12.00002,16.94005 12.00002,16.94005 C12.00002,16.94005 5.760135,16.883075 3.84009,16.69896 C3.305955,16.598775 2.10672,16.629 1.193755,15.673095 C0.47418,14.94479 0.24002,13.29091 0.24002,13.29091 C0.24002,13.29091 0,11.348745 0,9.406605 L0,7.58582 C0,5.64366 0.240015,3.701495 0.240015,3.701495 C0.240015,3.701495 0.474175,2.047625 1.19375,1.319315 C2.106715,0.36341 3.12932,0.358675 3.59847,0.30272 C6.95704,0.05995 11.994785,0.05995 11.994785,0.05995 L12.005215,0.05995 C12.005215,0.05995 17.04306,0.05995 20.401525,0.30272 C20.870645,0.358675 21.893615,0.36341 22.806245,1.319315 C23.52581,2.047625 23.760335,3.701495 23.760335,3.701495 Z M9.522285,11.613055 L16.006095,8.25312 L9.521185,4.86969 L9.522285,11.613055 Z" id="path-1"></path>
    </defs>
    <g id="Symbols" stroke="none" stroke-width="1" fill="none" fill-rule="evenodd">
        <g id="icon/24px/socials/youtube" transform="translate(-8.000000, -12.000000)">
            <g id="color/CTA" transform="translate(8.000000, 12.000000)">
                <mask id="mask-2" fill="white">
                    <use xlink:href="#path-1"></use>
                </mask>
                <use id="Mask" fill="#FFFFFF" fill-rule="nonzero" xlink:href="#path-1"></use>
            </g>
        </g>
    </g>
</svg>