<?xml version="1.0" encoding="UTF-8"?>
<svg width="40px" height="40px" viewBox="0 0 40 40" version="1.1" xmlns="http://www.w3.org/2000/svg" xmlns:xlink="http://www.w3.org/1999/xlink">
    <!-- Generator: Sketch 54.1 (76490) - https://sketchapp.com -->
    <title>icon/24px/socials/youtubecolor</title>
    <desc>Created with Sketch.</desc>
    <g id="icon/24px/socials/youtubecolor" stroke="none" stroke-width="1" fill="none" fill-rule="evenodd">
        <g id="social-color-1-logo-youtube" transform="translate(8.000000, 12.000000)" fill-rule="nonzero">
            <path d="M23.760335,3.701495 C23.760335,3.701495 23.52581,2.047625 22.806245,1.319315 C21.893615,0.36341 20.870645,0.358675 20.401525,0.30272 C17.04306,0.05995 12.005215,0.05995 12.005215,0.05995 L11.994785,0.05995 C11.994785,0.05995 6.95704,0.05995 3.59847,0.30272 C3.12932,0.358675 2.106715,0.36341 1.19375,1.319315 C0.474175,2.047625 0.240015,3.701495 0.240015,3.701495 C0.240015,3.701495 0,5.64366 0,7.58582 L0,9.406605 C0,11.348745 0.24002,13.29091 0.24002,13.29091 C0.24002,13.29091 0.47418,14.94479 1.193755,15.673095 C2.10672,16.629 3.305955,16.598775 3.84009,16.69896 C5.760135,16.883075 12.00002,16.94005 12.00002,16.94005 C12.00002,16.94005 17.043065,16.932455 20.40153,16.68969 C20.870645,16.633725 21.89362,16.629 22.80625,15.673095 C23.525815,14.944785 23.76034,13.29091 23.76034,13.29091 C23.76034,13.29091 24,11.348745 24,9.406605 L24,7.58582 C24,5.64366 23.760335,3.701495 23.760335,3.701495 Z" id="Path" fill="#DC2217"></path>
            <polygon id="Path" fill="#FFFFFF" points="9.522285 11.613055 9.521185 4.86969 16.006095 8.25312"></polygon>
        </g>
    </g>
</svg>