<svg height="48" viewBox="0 0 48 48" width="48" xmlns="http://www.w3.org/2000/svg"><path d="m44 27h-40l-3-4 4-4h38l4 4z" fill="#a67c52"/><path d="m41 47h-34c-1.105 0-2-.895-2-2v-42c0-1.105.895-2 2-2h24l12 12v32c0 1.105-.895 2-2 2z" fill="#e6e6e6"/><path d="m31 1v10c0 1.105.895 2 2 2h10z" fill="#b3b3b3"/><path d="m45 41h-42c-1.105 0-2-.895-2-2v-16h46v16c0 1.105-.895 2-2 2z" fill="#c19f85"/><g fill="#fff"><path d="m21.695 36h-6.117v-1.311l3.4-4.828h-3.32v-1.714h5.951v1.306l-3.399 4.834h3.485z"/><path d="m22.818 36v-7.853h2.133v7.853z"/><path d="m32.347 30.645c0 .878-.259 1.556-.776 2.033-.518.479-1.252.717-2.205.717h-.596v2.605h-2.121v-7.853h2.717c.992 0 1.737.217 2.234.649.498.434.747 1.051.747 1.849zm-3.577 1.021h.387c.318 0 .572-.09.76-.27.188-.179.282-.426.282-.74 0-.53-.294-.795-.881-.795h-.548z"/></g></svg>